<svg width="160" height="170" viewBox="0 0 160 170" fill="none" xmlns="http://www.w3.org/2000/svg">
<g id="Frame 3">
<g id="Group">
<g id="Group_2">
<g id="Group_3">
<path id="Vector" d="M27.2503 68.86C26.1303 68.35 24.8103 68.2 23.3003 68.41C21.7903 68.62 20.4703 69.14 19.3503 69.97C18.2303 70.79 17.3603 71.86 16.7503 73.18C16.1403 74.5 15.8303 75.99 15.8203 77.65C15.8203 79.32 16.1203 80.73 16.7203 81.89C17.3203 83.05 18.1903 83.89 19.3103 84.39C20.4303 84.9 21.7603 85.05 23.2703 84.84C24.7903 84.63 26.1003 84.11 27.2303 83.28C28.3503 82.46 29.2103 81.38 29.8103 80.05C30.4103 78.72 30.7103 77.22 30.7103 75.56C30.7103 73.9 30.4203 72.49 29.8203 71.34C29.2303 70.2 28.3703 69.37 27.2503 68.86ZM25.9003 79.97C25.2703 80.92 24.3903 81.47 23.2803 81.62C22.1703 81.78 21.3003 81.47 20.6803 80.71C20.0603 79.95 19.7503 78.74 19.7503 77.09C19.7503 75.45 20.0703 74.17 20.7003 73.25C21.3303 72.32 22.2003 71.78 23.3103 71.62C24.4203 71.46 25.3003 71.77 25.9303 72.52C26.5603 73.28 26.8703 74.47 26.8703 76.09C26.8503 77.74 26.5303 79.03 25.9003 79.97Z" fill="#DEDEDE"/>
</g>
<g id="Group_4">
<path id="Vector_2" d="M44.4108 75.5699C44.0808 75.2899 43.7008 75.13 43.2908 75.1C44.2608 74.63 45.0208 73.97 45.5608 73.1C46.1008 72.24 46.3608 71.2699 46.3708 70.1899C46.3708 68.6399 45.9208 67.5199 45.0208 66.8099C44.1208 66.1099 42.7708 65.8799 40.9808 66.1299L34.0808 67.1L34.0508 83.1299L37.9108 82.59L37.9208 76.35L39.3408 76.15C40.1608 76.03 40.6808 76.26 40.9008 76.83L42.8108 81.8899L46.9608 81.3099L45.2208 76.78C45.0108 76.26 44.7408 75.8599 44.4108 75.5699ZM42.1408 72.1899C41.7608 72.5199 41.1608 72.7499 40.3308 72.8599L37.8708 73.21L37.8808 69.77L40.3408 69.4199C41.1908 69.2999 41.8008 69.3499 42.1608 69.5699C42.5308 69.7899 42.7108 70.2099 42.7108 70.8199C42.7108 71.3999 42.5208 71.8599 42.1408 72.1899Z" fill="#DEDEDE"/>
</g>
<g id="Group_5">
<path id="Vector_3" d="M56.9407 73.7199L59.5207 73.3598L59.5107 76.3299C58.8607 76.5699 58.2007 76.7399 57.5507 76.8299C56.1507 77.0299 55.1107 76.7599 54.4407 76.0299C53.7707 75.2999 53.4307 74.0799 53.4307 72.3699C53.4307 70.7199 53.7607 69.4498 54.4107 68.5498C55.0607 67.6598 56.0407 67.1199 57.3607 66.9299C58.0807 66.8299 58.7607 66.8399 59.3907 66.9699C60.0207 67.0999 60.6807 67.3599 61.3607 67.7399L62.6007 64.5699C62.0007 64.1299 61.2307 63.8299 60.2807 63.6599C59.3307 63.4899 58.3207 63.4799 57.2507 63.6399C55.6907 63.8599 54.3307 64.3799 53.1607 65.2199C51.9907 66.0499 51.0907 67.1299 50.4407 68.4599C49.8007 69.7899 49.4807 71.2799 49.4707 72.9299C49.4707 74.6299 49.7807 76.0499 50.4207 77.1999C51.0607 78.3499 51.9707 79.1699 53.1607 79.6599C54.3507 80.1499 55.7507 80.2899 57.3607 80.0599C58.3907 79.9199 59.3907 79.6699 60.3707 79.3199C61.3507 78.9699 62.2407 78.5498 63.0307 78.0498L63.0407 70.0099L56.9307 70.8699L56.9407 73.7199Z" fill="#DEDEDE"/>
</g>
<g id="Group_6">
<path id="Vector_4" d="M71.7298 61.8099L64.7598 78.8099L68.6797 78.2599L69.9998 74.7699L76.5898 73.8399L77.8998 76.9599L81.7598 76.4199L74.8198 61.3699L71.7298 61.8099ZM71.2698 71.4199L73.2997 66.0699L75.3098 70.8499L71.2698 71.4199Z" fill="#DEDEDE"/>
</g>
<g id="Group_7">
<path id="Vector_5" d="M87.3104 66.55L94.0304 74.7L96.9304 74.29L96.9604 58.26L93.2704 58.78L93.2504 67.83L86.5304 59.73L83.6804 60.13L83.6504 76.16L87.3004 75.64L87.3104 66.55Z" fill="#DEDEDE"/>
</g>
<g id="Group_8">
<path id="Vector_6" d="M104.61 57.1899L100.69 57.7399L100.66 73.77L104.58 73.22L104.61 57.1899Z" fill="#DEDEDE"/>
</g>
<g id="Group_9">
<path id="Vector_7" d="M120.54 69.4199L119.36 66.59C118.15 67.7 116.9 68.35 115.6 68.54C114.4 68.71 113.49 68.42 112.85 67.69C112.21 66.95 111.89 65.78 111.9 64.16C111.9 62.55 112.22 61.3 112.87 60.39C113.51 59.48 114.43 58.94 115.62 58.78C116.91 58.6 118.16 58.8999 119.37 59.6699L120.57 56.51C120.02 56.05 119.28 55.72 118.37 55.53C117.46 55.35 116.52 55.32 115.54 55.46C114 55.68 112.65 56.21 111.5 57.05C110.35 57.89 109.47 58.98 108.85 60.3C108.23 61.63 107.92 63.1 107.91 64.72C107.91 66.36 108.22 67.75 108.83 68.91C109.45 70.07 110.33 70.91 111.47 71.43C112.61 71.95 113.96 72.1 115.5 71.89C116.47 71.75 117.42 71.46 118.33 71.02C119.25 70.57 119.98 70.0399 120.54 69.4199Z" fill="#DEDEDE"/>
</g>
<g id="Group_10">
<path id="Vector_8" d="M45.0712 89.1099C44.1412 88.3599 42.8312 88.11 41.1312 88.35L34.0612 89.34L34.0312 105.37L37.9512 104.82L37.9612 98.5599L41.1113 98.1199C42.7813 97.8899 44.0913 97.2599 45.0312 96.2399C45.9812 95.2199 46.4512 93.9699 46.4512 92.4799C46.4712 90.9799 46.0012 89.8599 45.0712 89.1099ZM40.6013 95.04L37.9713 95.41L37.9813 91.9899L40.6113 91.6199C41.3713 91.5099 41.9313 91.58 42.2913 91.83C42.6413 92.07 42.8212 92.4799 42.8212 93.0499C42.8112 94.1599 42.0813 94.83 40.6013 95.04Z" fill="#DEDEDE"/>
</g>
<g id="Group_11">
<path id="Vector_9" d="M59.7408 95.66C59.4108 95.38 59.0308 95.2199 58.6208 95.1899C59.5908 94.7199 60.3509 94.0599 60.8909 93.1899C61.4309 92.3299 61.7009 91.36 61.7009 90.27C61.7009 88.73 61.2509 87.6 60.3509 86.89C59.4509 86.18 58.1009 85.96 56.3109 86.21L49.4109 87.1799L49.3809 103.21L53.2408 102.67L53.2509 96.4299L54.6709 96.2299C55.4909 96.1099 56.0109 96.34 56.2309 96.91L58.1409 101.98L62.2909 101.4L60.5508 96.8699C60.3408 96.3399 60.0708 95.94 59.7408 95.66ZM57.4709 92.27C57.0909 92.6 56.4909 92.8199 55.6509 92.9399L53.1909 93.29L53.2009 89.85L55.6609 89.4999C56.5109 89.3799 57.1209 89.43 57.4809 89.65C57.8509 89.87 58.0309 90.29 58.0309 90.9C58.0409 91.49 57.8509 91.94 57.4709 92.27Z" fill="#DEDEDE"/>
</g>
<g id="Group_12">
<path id="Vector_10" d="M76.2408 84.21C75.1208 83.7 73.8108 83.55 72.2908 83.76C70.7708 83.97 69.4608 84.49 68.3308 85.32C67.2108 86.14 66.3408 87.21 65.7308 88.53C65.1108 89.85 64.8108 91.34 64.8008 93C64.8008 94.67 65.1008 96.0799 65.7008 97.2399C66.3008 98.3999 67.1708 99.2399 68.2908 99.7399C69.4108 100.25 70.7408 100.4 72.2508 100.19C73.7708 99.98 75.0808 99.46 76.2008 98.63C77.3208 97.81 78.1808 96.73 78.7808 95.4C79.3808 94.07 79.6808 92.57 79.6908 90.91C79.6908 89.25 79.4008 87.84 78.8008 86.69C78.2208 85.55 77.3608 84.72 76.2408 84.21ZM74.8908 95.33C74.2508 96.28 73.3808 96.8299 72.2708 96.9799C71.1608 97.1399 70.2908 96.83 69.6708 96.07C69.0408 95.31 68.7408 94.1 68.7408 92.45C68.7408 90.81 69.0608 89.5299 69.6908 88.6099C70.3208 87.6799 71.1908 87.1399 72.3008 86.9799C73.4108 86.8199 74.2808 87.13 74.9208 87.88C75.5508 88.64 75.8608 89.83 75.8608 91.45C75.8408 93.09 75.5208 94.38 74.8908 95.33Z" fill="#DEDEDE"/>
</g>
<g id="Group_13">
<path id="Vector_11" d="M93.3596 81.9599C92.1696 81.4899 90.7595 81.3699 89.1195 81.5999L83.0495 82.4499L83.0195 98.4799L89.0895 97.6299C90.7395 97.3999 92.1596 96.8799 93.3596 96.0699C94.5496 95.2599 95.4595 94.2099 96.0895 92.9199C96.7195 91.6199 97.0296 90.1399 97.0396 88.4799C97.0396 86.8299 96.7295 85.4499 96.0995 84.3399C95.4595 83.2199 94.5496 82.4299 93.3596 81.9599ZM92.0695 92.6799C91.3495 93.5499 90.2695 94.0899 88.8195 94.2899L86.9395 94.5499L86.9595 85.2799L88.8395 85.0199C91.7195 84.6199 93.1495 85.9499 93.1495 89.0299C93.1495 90.5899 92.7895 91.7999 92.0695 92.6799Z" fill="#DEDEDE"/>
</g>
<g id="Group_14">
<path id="Vector_12" d="M109.621 88.15C109.621 89.29 109.381 90.21 108.901 90.89C108.431 91.58 107.751 91.9899 106.881 92.1099C105.991 92.2399 105.311 92.0199 104.831 91.4799C104.351 90.9299 104.121 90.0799 104.121 88.9199L104.141 79.4899L100.321 80.03L100.301 89.2999C100.301 91.5799 100.851 93.2299 101.961 94.2599C103.071 95.2799 104.711 95.64 106.881 95.33C109.011 95.03 110.641 94.2 111.771 92.85C112.911 91.5 113.481 89.6999 113.481 87.4399L113.501 78.1699L109.641 78.71L109.621 88.15Z" fill="#DEDEDE"/>
</g>
<g id="Group_15">
<path id="Vector_13" d="M124.399 79.7699C125.689 79.5899 126.939 79.88 128.149 80.66L129.349 77.4999C128.799 77.0399 128.059 76.7099 127.149 76.5199C126.239 76.3299 125.299 76.3099 124.319 76.4499C122.779 76.6699 121.429 77.2 120.279 78.04C119.129 78.89 118.249 79.97 117.629 81.29C117.009 82.62 116.699 84.0899 116.689 85.7099C116.689 87.3499 116.999 88.74 117.609 89.9C118.229 91.0599 119.109 91.8999 120.249 92.4199C121.399 92.9399 122.739 93.0999 124.279 92.8799C125.249 92.7399 126.199 92.4499 127.109 92.0099C128.019 91.5699 128.759 91.0399 129.309 90.4199L128.129 87.59C126.919 88.7 125.669 89.35 124.369 89.54C123.169 89.71 122.259 89.4199 121.619 88.6899C120.979 87.9499 120.659 86.78 120.669 85.16C120.669 83.55 120.989 82.2999 121.639 81.3899C122.289 80.4799 123.199 79.9399 124.399 79.7699Z" fill="#DEDEDE"/>
</g>
<g id="Group_16">
<path id="Vector_14" d="M131.141 75.6999V79.1199L135.561 78.4999L135.531 91.0999L139.491 90.5499L139.521 77.9399L143.941 77.3199L143.951 73.8999L131.141 75.6999Z" fill="#DEDEDE"/>
</g>
</g>
<g id="Group_17">
<g id="Group_18">
<g id="Group_19">
<g id="Group_20">
<path id="Vector_15" d="M81.1001 150.5C83.3501 145.61 87.6701 141.85 92.5501 139.57C97.4301 137.29 102.85 136.39 108.23 136.14C107.88 142.68 107.47 149.47 104.3 155.2C101.54 160.18 91.8601 168.61 85.6101 168.16C85.4201 168.15 85.2301 168.12 85.0501 168.09C87.5001 162.27 91.1801 156.98 95.8101 152.67C96.4601 152.07 96.5001 151.05 95.8901 150.4C95.2901 149.75 94.2701 149.71 93.6201 150.32C88.7101 154.89 84.7901 160.49 82.1701 166.66C78.5101 163.12 79.3501 154.3 81.1001 150.5Z" fill="#DEDEDE"/>
</g>
</g>
</g>
<g id="Group_21">
<g id="Group_22">
<g id="Group_23">
<path id="Vector_16" d="M70.2508 144.51C74.1508 148.86 79.2209 160.8 76.8909 166.34C76.6209 166.98 76.2609 167.51 75.8409 167.94C70.1109 162.73 65.7108 155.97 63.3208 148.62C63.0408 147.78 62.1409 147.31 61.2909 147.59C60.4509 147.86 59.9808 148.77 60.2608 149.62C62.6908 157.07 67.0409 163.96 72.7109 169.41C68.1009 170.05 61.4208 166.62 58.6908 163.97C54.7208 160.12 52.4609 154.79 51.7809 149.5C51.1009 144.21 51.8908 138.92 53.3008 133.92C59.4208 136.63 65.7708 139.51 70.2508 144.51Z" fill="#DEDEDE"/>
</g>
</g>
</g>
</g>
<g id="Group_24">
<g id="Group_25">
<path id="Vector_17" d="M124.29 146.14C123.36 146.14 122.45 145.7 121.87 144.89C120.92 143.55 121.24 141.7 122.58 140.76C132.04 134.06 139.9 125.12 145.3 114.89C150.88 104.33 153.83 92.4 153.83 80.37C153.83 60.62 146.14 42.05 132.17 28.08C118.2 14.11 99.63 6.41998 79.88 6.41998C60.13 6.41998 41.56 14.11 27.59 28.08C13.62 42.05 5.92999 60.62 5.92999 80.37C5.92999 92.4 8.88002 104.33 14.46 114.89C19.87 125.11 27.72 134.06 37.18 140.76C38.52 141.71 38.83 143.56 37.89 144.89C36.94 146.23 35.09 146.54 33.76 145.6C23.55 138.37 15.06 128.71 9.22003 117.67C3.19003 106.26 0 93.37 0 80.38C0 59.04 8.31002 38.98 23.4 23.9C38.49 8.81002 58.55 0.5 79.88 0.5C101.22 0.5 121.28 8.81002 136.36 23.9C151.45 38.99 159.76 59.05 159.76 80.38C159.76 93.37 156.57 106.26 150.54 117.67C144.7 128.71 136.22 138.37 126 145.6C125.49 145.96 124.89 146.14 124.29 146.14Z" fill="#DEDEDE"/>
</g>
</g>
<g id="Group_26">
<g id="Group_27">
<g id="Group_28">
<path id="Vector_18" d="M119.619 39.2901C120.349 39.1901 120.939 39.74 120.939 40.53C120.939 41.32 120.349 42.04 119.619 42.14L35.3591 53.98C34.6291 54.08 34.0391 53.53 34.0391 52.74C34.0391 51.95 34.6291 51.23 35.3591 51.13L119.619 39.2901Z" fill="#DEDEDE"/>
</g>
</g>
</g>
<g id="Group_29">
<g id="Group_30">
<g id="Group_31">
<path id="Vector_19" d="M119.619 104.61C120.349 104.51 120.939 105.06 120.939 105.85C120.939 106.64 120.349 107.36 119.619 107.46L35.3591 119.3C34.6291 119.4 34.0391 118.85 34.0391 118.06C34.0391 117.27 34.6291 116.55 35.3591 116.45L119.619 104.61Z" fill="#DEDEDE"/>
</g>
</g>
</g>
</g>
</g>
</svg>
