<svg width="213" height="168" viewBox="0 0 213 168" fill="none" xmlns="http://www.w3.org/2000/svg">
<g id="Frame 1">
<g id="Group">
<g id="Group_2">
<path id="Vector" d="M104.24 154.09C104.228 154.09 104.216 154.09 104.205 154.09C102.663 154.042 101.097 153.935 99.5671 153.781C99.0374 153.734 98.6608 153.259 98.7078 152.725C98.7549 152.191 99.2257 151.811 99.7554 151.859C101.25 152.013 102.757 152.108 104.264 152.155C104.793 152.167 105.205 152.618 105.182 153.152C105.17 153.686 104.746 154.09 104.24 154.09ZM108.819 154.09C108.313 154.09 107.889 153.674 107.865 153.164C107.854 152.63 108.266 152.191 108.783 152.167C110.29 152.12 111.797 152.013 113.292 151.87C113.821 151.811 114.28 152.203 114.339 152.737C114.386 153.259 114.01 153.734 113.48 153.793C111.95 153.947 110.384 154.054 108.842 154.102C108.842 154.09 108.831 154.09 108.819 154.09ZM95.1178 153.188C95.0707 153.188 95.0119 153.188 94.9648 153.176C93.4464 152.915 91.9162 152.606 90.4096 152.25C89.8917 152.132 89.5857 151.609 89.7034 151.099C89.8211 150.577 90.339 150.256 90.8451 150.387C92.3047 150.731 93.7995 151.04 95.2708 151.289C95.7887 151.372 96.1419 151.87 96.0595 152.393C95.9771 152.855 95.5768 153.188 95.1178 153.188ZM117.929 153.176C117.47 153.176 117.07 152.844 116.988 152.369C116.905 151.847 117.246 151.348 117.764 151.265C119.247 151.016 120.731 150.707 122.19 150.363C122.708 150.245 123.214 150.565 123.344 151.075C123.461 151.586 123.143 152.108 122.637 152.238C121.131 152.594 119.601 152.915 118.082 153.164C118.035 153.164 117.988 153.176 117.929 153.176ZM86.2075 151.063C86.1133 151.063 86.0192 151.052 85.925 151.016C84.4537 150.553 82.9706 150.043 81.5228 149.485C81.0285 149.295 80.7813 148.737 80.9814 148.239C81.1697 147.741 81.7229 147.491 82.2173 147.681C83.618 148.227 85.0658 148.726 86.49 149.177C86.9961 149.331 87.2786 149.877 87.1138 150.375C86.9844 150.791 86.6077 151.063 86.2075 151.063ZM126.851 151.04C126.439 151.04 126.063 150.779 125.945 150.363C125.792 149.853 126.074 149.319 126.569 149.165C128.005 148.714 129.441 148.215 130.841 147.669C131.336 147.479 131.889 147.729 132.077 148.215C132.266 148.714 132.018 149.271 131.536 149.461C130.1 150.019 128.617 150.541 127.146 151.004C127.04 151.016 126.945 151.04 126.851 151.04ZM77.6385 147.741C77.5091 147.741 77.3678 147.717 77.2383 147.646C75.8376 146.993 74.4487 146.281 73.0833 145.533C72.6243 145.272 72.4477 144.691 72.7067 144.228C72.9656 143.765 73.5424 143.587 74.0014 143.848C75.3197 144.572 76.6851 145.272 78.0387 145.901C78.5213 146.127 78.7214 146.696 78.4978 147.183C78.3448 147.527 78.0034 147.741 77.6385 147.741ZM135.397 147.717C135.032 147.717 134.69 147.515 134.537 147.159C134.314 146.672 134.526 146.103 134.996 145.877C136.35 145.237 137.704 144.548 139.022 143.824C139.481 143.563 140.058 143.741 140.317 144.204C140.576 144.667 140.399 145.248 139.94 145.509C138.586 146.257 137.198 146.969 135.797 147.622C135.667 147.681 135.526 147.717 135.397 147.717ZM143.412 143.266C143.095 143.266 142.789 143.112 142.612 142.827C142.33 142.376 142.459 141.783 142.906 141.498C144.166 140.679 145.425 139.813 146.626 138.911C147.049 138.591 147.65 138.686 147.956 139.113C148.274 139.54 148.179 140.145 147.756 140.454C146.52 141.38 145.225 142.27 143.93 143.112C143.766 143.219 143.589 143.266 143.412 143.266ZM150.781 137.784C150.51 137.784 150.239 137.665 150.051 137.44C149.71 137.036 149.757 136.431 150.169 136.087C151.31 135.114 152.44 134.081 153.523 133.025C153.9 132.657 154.5 132.669 154.877 133.049C155.242 133.428 155.23 134.034 154.853 134.413C153.747 135.493 152.582 136.549 151.405 137.558C151.216 137.712 151.004 137.784 150.781 137.784ZM38.0306 80.4279C38.0071 80.4279 37.9835 80.4279 37.9718 80.4279C37.4421 80.3923 37.0536 79.9413 37.0772 79.4073C37.1831 77.8527 37.3362 76.2861 37.5363 74.7434C37.6069 74.2212 38.0895 73.8533 38.6074 73.9126C39.1253 73.9838 39.5019 74.4704 39.4313 74.9926C39.2312 76.4879 39.0899 78.0069 38.984 79.526C38.9487 80.0363 38.525 80.4279 38.0306 80.4279ZM174.934 80.1787C174.44 80.1787 174.016 79.7871 173.981 79.2886C173.875 77.7814 173.722 76.2505 173.521 74.7552C173.451 74.2331 173.816 73.7465 174.334 73.6753C174.863 73.6041 175.334 73.972 175.405 74.4941C175.617 76.0369 175.77 77.6034 175.876 79.1581C175.911 79.6921 175.511 80.1431 174.993 80.1787C174.969 80.1787 174.957 80.1787 174.934 80.1787ZM39.2194 71.2662C39.1606 71.2662 39.09 71.2543 39.0311 71.2424C38.5132 71.1356 38.1836 70.6372 38.2896 70.115C38.5956 68.5841 38.9487 67.0532 39.3607 65.5579C39.5019 65.0476 40.0199 64.739 40.526 64.8814C41.0321 65.0238 41.3381 65.546 41.1969 66.0563C40.8085 67.516 40.4553 68.9995 40.1611 70.4948C40.0669 70.9457 39.6667 71.2662 39.2194 71.2662ZM173.698 71.0288C173.251 71.0288 172.862 70.7203 172.768 70.2574C172.462 68.774 172.109 67.2787 171.709 65.8308C171.568 65.3205 171.862 64.7865 172.38 64.6441C172.886 64.5017 173.416 64.7984 173.557 65.3205C173.969 66.8158 174.334 68.3468 174.64 69.8777C174.746 70.3998 174.416 70.9101 173.898 71.0169C173.828 71.0169 173.769 71.0288 173.698 71.0288ZM41.6324 62.3536C41.5265 62.3536 41.4205 62.3418 41.3264 62.3062C40.832 62.1282 40.5613 61.5823 40.7378 61.0838C41.244 59.6122 41.8089 58.1407 42.4092 56.7047C42.6093 56.2181 43.1743 55.9927 43.6569 56.1944C44.1395 56.3962 44.3632 56.9658 44.1631 57.4524C43.5746 58.8527 43.0331 60.2768 42.5387 61.7128C42.3975 62.1044 42.0208 62.3536 41.6324 62.3536ZM171.262 62.1163C170.873 62.1163 170.496 61.8671 170.367 61.4755C169.873 60.0513 169.319 58.6272 168.731 57.2387C168.519 56.7522 168.754 56.1825 169.237 55.9808C169.72 55.7672 170.285 56.0045 170.485 56.4911C171.085 57.9152 171.65 59.3868 172.168 60.8583C172.344 61.3568 172.085 61.9027 171.579 62.0807C171.473 62.1044 171.367 62.1163 171.262 62.1163ZM45.1989 53.8328C45.0577 53.8328 44.9046 53.7972 44.7751 53.726C44.3043 53.4886 44.116 52.9071 44.3514 52.4324C45.0459 51.0439 45.7992 49.6554 46.5878 48.3144C46.8585 47.8515 47.447 47.7091 47.8943 47.9821C48.3534 48.255 48.4946 48.8365 48.2239 49.2993C47.4588 50.6048 46.729 51.9458 46.0463 53.2987C45.8816 53.6429 45.552 53.8328 45.1989 53.8328ZM167.672 53.6429C167.318 53.6429 166.989 53.453 166.824 53.1207C166.141 51.7797 165.412 50.4386 164.646 49.1332C164.376 48.6822 164.529 48.0889 164.976 47.8159C165.423 47.543 166.012 47.6972 166.283 48.1482C167.071 49.4892 167.825 50.8659 168.531 52.2425C168.766 52.7172 168.578 53.2987 168.119 53.5361C167.966 53.6073 167.813 53.6429 167.672 53.6429ZM49.8718 45.8815C49.6834 45.8815 49.4951 45.8222 49.3303 45.7154C48.8948 45.4187 48.7889 44.8134 49.0832 44.3743C49.9542 43.0926 50.8841 41.8228 51.8375 40.6005C52.167 40.1851 52.7674 40.1139 53.1793 40.4462C53.5913 40.7785 53.6619 41.3837 53.3323 41.7991C52.4024 42.9858 51.4961 44.22 50.6486 45.4661C50.4721 45.7272 50.1778 45.8815 49.8718 45.8815ZM162.987 45.7035C162.681 45.7035 162.387 45.5611 162.198 45.2881C161.339 44.042 160.444 42.8078 159.503 41.621C159.173 41.2057 159.244 40.6004 159.656 40.2682C160.068 39.9359 160.668 40.0071 160.998 40.4224C161.951 41.6329 162.881 42.9027 163.764 44.1844C164.058 44.6235 163.952 45.2169 163.517 45.5255C163.363 45.656 163.175 45.7035 162.987 45.7035ZM55.5452 38.6186C55.3216 38.6186 55.0862 38.5355 54.9096 38.3694C54.5212 38.0133 54.4858 37.4081 54.839 37.0165C55.8748 35.8653 56.9577 34.726 58.0641 33.6461C58.4408 33.2782 59.0411 33.29 59.4177 33.6698C59.7826 34.0496 59.7708 34.6548 59.3942 35.0346C58.3113 36.0908 57.2637 37.1945 56.2514 38.31C56.0631 38.5118 55.8041 38.6186 55.5452 38.6186ZM157.29 38.4762C157.031 38.4762 156.772 38.3693 156.584 38.1557C155.571 37.0402 154.512 35.9365 153.429 34.8803C153.052 34.5124 153.041 33.9072 153.406 33.5155C153.771 33.1358 154.371 33.1239 154.759 33.4918C155.866 34.5717 156.96 35.6992 157.996 36.8503C158.349 37.2419 158.326 37.8472 157.925 38.2032C157.749 38.3931 157.514 38.4762 157.29 38.4762ZM62.1249 32.1864C61.8542 32.1864 61.5835 32.0677 61.3952 31.8422C61.0538 31.4387 61.1009 30.8335 61.5011 30.4893C62.6781 29.4806 63.9023 28.5074 65.1382 27.5818C65.5619 27.2613 66.1622 27.3563 66.4683 27.7835C66.7861 28.2107 66.6919 28.816 66.2682 29.1245C65.0676 30.0265 63.867 30.9759 62.7252 31.9609C62.5604 32.1152 62.3486 32.1864 62.1249 32.1864ZM150.687 32.0558C150.475 32.0558 150.251 31.9846 150.075 31.8303C148.933 30.8572 147.732 29.9078 146.52 29.0059C146.096 28.6973 146.002 28.0921 146.32 27.6648C146.626 27.2376 147.226 27.1427 147.65 27.4631C148.897 28.3888 150.122 29.3619 151.299 30.3588C151.699 30.7029 151.758 31.3082 151.416 31.7117C151.228 31.949 150.969 32.0558 150.687 32.0558ZM69.4933 26.6917C69.1755 26.6917 68.8695 26.5374 68.6929 26.2526C68.4104 25.8016 68.5399 25.2083 68.9754 24.9234C70.2702 24.0808 71.612 23.2738 72.9656 22.5262C73.4247 22.2651 74.0014 22.4431 74.2604 22.906C74.5193 23.3688 74.3428 23.9503 73.8837 24.2114C72.5654 24.9472 71.2589 25.7304 69.9994 26.5374C69.8464 26.6442 69.6699 26.6917 69.4933 26.6917ZM143.306 26.5849C143.13 26.5849 142.953 26.5374 142.8 26.4306C141.529 25.6118 140.223 24.8404 138.904 24.1046C138.445 23.8554 138.269 23.262 138.528 22.7992C138.775 22.3363 139.363 22.1583 139.822 22.4194C141.176 23.167 142.518 23.974 143.824 24.8048C144.272 25.0896 144.401 25.683 144.119 26.1339C143.93 26.4306 143.624 26.5849 143.306 26.5849ZM77.5091 22.2414C77.1442 22.2414 76.8028 22.0396 76.6498 21.6836C76.4262 21.197 76.638 20.6274 77.1089 20.4019C78.5096 19.7492 79.9456 19.1321 81.3816 18.5624C81.8759 18.3726 82.4291 18.6218 82.6175 19.1084C82.8058 19.6068 82.5586 20.1645 82.076 20.3544C80.6753 20.9003 79.2864 21.4937 77.921 22.1346C77.7798 22.2176 77.6503 22.2414 77.5091 22.2414ZM135.255 22.1464C135.126 22.1464 134.985 22.1227 134.855 22.0515C133.49 21.4106 132.089 20.8173 130.688 20.2714C130.194 20.0815 129.947 19.5237 130.135 19.0253C130.324 18.5268 130.877 18.2776 131.371 18.4675C132.819 19.0253 134.255 19.6424 135.656 20.2951C136.138 20.5206 136.338 21.0902 136.115 21.5649C135.962 21.9447 135.62 22.1464 135.255 22.1464ZM86.0427 18.9066C85.6307 18.9066 85.2659 18.6455 85.1364 18.2301C84.9834 17.7198 85.2659 17.1858 85.7602 17.0315C87.2315 16.5687 88.7382 16.1533 90.2448 15.7854C90.7627 15.6668 91.2689 15.9753 91.3983 16.4975C91.516 17.0078 91.21 17.53 90.6921 17.6605C89.2325 18.0165 87.773 18.42 86.337 18.871C86.2428 18.8947 86.1369 18.9066 86.0427 18.9066ZM126.698 18.8354C126.604 18.8354 126.51 18.8235 126.416 18.7879C124.98 18.337 123.508 17.9453 122.049 17.5893C121.531 17.4706 121.213 16.9485 121.343 16.4382C121.472 15.9279 121.978 15.6074 122.484 15.7261C123.979 16.0821 125.498 16.4975 126.969 16.9485C127.475 17.1027 127.758 17.6368 127.605 18.1471C127.475 18.5743 127.098 18.8354 126.698 18.8354ZM94.953 16.7586C94.494 16.7586 94.0938 16.4263 94.0114 15.9634C93.929 15.4413 94.2703 14.9428 94.7882 14.8598C96.3066 14.5987 97.8486 14.3851 99.3905 14.2308C99.9202 14.1715 100.379 14.5631 100.438 15.0853C100.485 15.6193 100.109 16.0821 99.5906 16.1415C98.0958 16.2957 96.5891 16.4975 95.106 16.7467C95.059 16.7586 95.0119 16.7586 94.953 16.7586ZM117.776 16.723C117.729 16.723 117.67 16.723 117.623 16.7111C116.14 16.4619 114.633 16.2601 113.139 16.1177C112.609 16.0703 112.232 15.5955 112.279 15.0734C112.326 14.5512 112.797 14.1596 113.315 14.2071C114.857 14.3613 116.399 14.5631 117.917 14.8123C118.435 14.8954 118.788 15.3938 118.706 15.916C118.635 16.3907 118.235 16.723 117.776 16.723ZM104.075 15.8329C103.569 15.8329 103.145 15.4294 103.122 14.9072C103.098 14.3732 103.51 13.9341 104.04 13.9104C105.57 13.851 107.159 13.851 108.689 13.8985C109.219 13.9104 109.631 14.3613 109.607 14.8954C109.596 15.4175 109.172 15.821 108.654 15.821C108.642 15.821 108.63 15.821 108.619 15.821C107.136 15.7736 105.582 15.7736 104.099 15.8329C104.099 15.8329 104.087 15.8329 104.075 15.8329Z" fill="#DEDEDE"/>
</g>
<g id="Group_3">
<g id="Group_4">
<path id="Vector_2" d="M31.309 85.2579C31.2972 84.8426 31.2972 84.4272 31.2972 84C31.2972 42.2025 65.0316 8.19016 106.488 8.19016C147.943 8.19016 181.678 42.2025 181.678 84C181.678 85.8988 181.607 87.7739 181.466 89.6252C183.785 90.3254 186.233 90.99 188.964 91.5478C189.187 89.0556 189.305 86.5278 189.305 84C189.305 61.7009 180.689 40.731 165.046 24.959C149.403 9.18704 128.604 0.5 106.488 0.5C84.3706 0.5 63.5721 9.18704 47.929 24.959C32.4507 40.5648 23.8582 61.2737 23.6816 83.3236C26.4595 83.8813 28.9549 84.5459 31.309 85.2579Z" fill="#DEDEDE"/>
<path id="Vector_3" d="M163.87 132.93C150.063 149.366 129.464 159.81 106.488 159.81C87.7143 159.81 70.5293 152.844 57.3463 141.332C51.8377 140.584 47.4708 139.433 43.457 138.163C44.8813 139.837 46.3643 141.463 47.9298 143.041C63.5729 158.813 84.3715 167.5 106.488 167.5C128.605 167.5 149.404 158.813 165.047 143.041C167.495 140.573 169.755 137.985 171.85 135.291C169.343 134.449 166.754 133.642 163.87 132.93Z" fill="#DEDEDE"/>
</g>
<path id="Vector_4" d="M209.186 146.103C191.436 146.103 182.432 142.993 173.722 139.991C165.223 137.06 157.208 134.295 140.729 134.295C124.25 134.295 116.222 137.06 107.736 139.991C99.0257 142.993 90.0212 146.103 72.2712 146.103C54.5212 146.103 45.5168 142.993 36.8066 139.991C28.3082 137.06 20.2925 134.295 3.81368 134.295C1.70676 134.295 0 132.574 0 130.45V81.5671C0 79.4428 1.70676 77.722 3.81368 77.722C21.5637 77.722 30.5681 80.8313 39.2783 83.8338C47.7767 86.7651 55.7925 89.5302 72.2712 89.5302C88.75 89.5302 96.7775 86.7651 105.264 83.8338C113.974 80.8313 122.979 77.722 140.729 77.722C158.479 77.722 167.483 80.8313 176.193 83.8338C184.692 86.7651 192.708 89.5302 209.186 89.5302C211.293 89.5302 213 91.251 213 93.3753V142.258C213 144.37 211.293 146.103 209.186 146.103ZM7.60381 126.652C22.8702 127.067 31.192 129.927 39.2548 132.716C47.7532 135.647 55.7689 138.413 72.2477 138.413C88.7265 138.413 96.754 135.647 105.241 132.716C113.951 129.714 122.955 126.604 140.705 126.604C158.455 126.604 167.46 129.714 176.17 132.716C183.986 135.41 191.389 137.974 205.361 138.365V97.1729C190.083 96.7576 181.773 93.8975 173.71 91.1086C165.212 88.1773 157.196 85.4122 140.717 85.4122C124.238 85.4122 116.211 88.1773 107.724 91.1086C99.0139 94.1111 90.0095 97.2204 72.2595 97.2204C54.5095 97.2204 45.505 94.1111 36.7948 91.1086C28.9791 88.4147 21.5754 85.8513 7.61555 85.4597V126.652H7.60381Z" fill="#DEDEDE"/>
</g>
<g id="Group_5">
<g id="Group_6">
<path id="Vector_5" d="M70.8465 67.7059L75.5783 65.1069L78.0736 69.7234L62.8896 78.0781L60.3942 73.4616L65.0907 70.8745L59.0759 59.7546L56.0509 64.7153L53.3555 59.7309L58.0166 52.1357L61.3947 50.2725L70.8465 67.7059Z" fill="#DEDEDE"/>
</g>
<g id="Group_7">
<path id="Vector_6" d="M80.6045 65.914C78.4623 64.1813 76.885 61.2857 75.8492 57.227C74.8369 53.2395 74.8487 49.9759 75.9081 47.4244C76.9557 44.8847 78.9802 43.2233 81.9581 42.4519C84.9478 41.6805 87.5021 42.1552 89.6326 43.876C91.763 45.5968 93.3403 48.445 94.3643 52.4444C95.4001 56.5031 95.3884 59.8022 94.3408 62.3656C93.2932 64.9171 91.2804 66.5786 88.2907 67.35C85.301 68.1214 82.735 67.6348 80.6045 65.914ZM88.9381 60.1227C89.1028 58.8054 88.8439 56.776 88.1495 54.0346C87.4668 51.3644 86.7487 49.5012 85.9719 48.445C85.195 47.3769 84.2652 46.9972 83.1823 47.2701C82.0994 47.5549 81.4638 48.3501 81.299 49.6555C81.1224 50.9609 81.3814 52.9547 82.0523 55.613C82.7468 58.3544 83.4883 60.2532 84.2651 61.3331C85.042 62.4012 85.9719 62.8047 87.0665 62.5199C88.1494 62.2469 88.7733 61.4518 88.9381 60.1227Z" fill="#DEDEDE"/>
</g>
<g id="Group_8">
<path id="Vector_7" d="M101.296 61.4636C99.6484 59.2562 98.8127 56.0639 98.8009 51.8746C98.7891 47.7566 99.6013 44.5998 101.237 42.3925C102.874 40.1851 105.239 39.0814 108.312 39.0696C111.395 39.0577 113.761 40.1495 115.409 42.345C117.057 44.5405 117.893 47.6973 117.905 51.8153C117.916 56.0045 117.104 59.2088 115.468 61.428C113.832 63.6472 111.466 64.7628 108.394 64.7628C105.31 64.7746 102.944 63.671 101.296 61.4636ZM110.783 57.9271C111.266 56.6928 111.513 54.6635 111.501 51.839C111.49 49.0858 111.242 47.1039 110.748 45.8815C110.254 44.6592 109.441 44.0539 108.323 44.0539C107.205 44.0539 106.405 44.671 105.91 45.8934C105.428 47.1157 105.181 49.1095 105.192 51.8628C105.204 54.6872 105.451 56.7166 105.946 57.9508C106.44 59.185 107.24 59.8021 108.37 59.8021C109.5 59.7784 110.301 59.1613 110.783 57.9271Z" fill="#DEDEDE"/>
</g>
<g id="Group_9">
<path id="Vector_8" d="M124.662 52.5272C123.944 50.8895 123.968 48.8838 124.733 46.5103C125.486 44.1843 126.639 42.5822 128.17 41.704C129.712 40.8258 131.465 40.7071 133.443 41.3598C135.42 42.0125 136.762 43.1518 137.48 44.7895C138.198 46.4273 138.186 48.4091 137.421 50.7352C136.656 53.1087 135.491 54.7345 133.961 55.6127C132.419 56.4909 130.665 56.6096 128.688 55.9569C126.734 55.316 125.38 54.1649 124.662 52.5272ZM130.112 67.1717L125.05 65.4984L146.591 46.1662L151.617 47.8276L130.112 67.1717ZM131.301 51.827C131.689 51.376 132.113 50.4741 132.548 49.1331C132.96 47.8632 133.137 46.902 133.066 46.273C132.996 45.644 132.725 45.2524 132.23 45.0862C131.748 44.9201 131.289 45.0744 130.877 45.5491C130.465 46.0238 130.053 46.8901 129.641 48.1718C129.217 49.4891 129.029 50.4622 129.088 51.0675C129.147 51.6846 129.417 52.0643 129.912 52.2305C130.441 52.4204 130.912 52.278 131.301 51.827ZM139.269 68.3585C138.575 66.7326 138.61 64.727 139.375 62.3535C140.129 60.0275 141.27 58.4253 142.789 57.5353C144.307 56.6452 146.049 56.5384 148.027 57.1792C150.028 57.8438 151.369 58.9831 152.076 60.5971C152.782 62.2111 152.747 64.2048 151.981 66.5427C151.205 68.9162 150.063 70.5421 148.556 71.4322C147.038 72.3222 145.284 72.429 143.283 71.7763C141.294 71.1236 139.964 69.9843 139.269 68.3585ZM145.861 67.6227C146.273 67.1598 146.685 66.2698 147.12 64.9525C147.532 63.6827 147.709 62.7214 147.638 62.0924C147.568 61.4634 147.297 61.0718 146.802 60.9057C146.32 60.7395 145.861 60.9057 145.449 61.3685C145.037 61.8432 144.625 62.7095 144.213 63.9912C143.789 65.3085 143.601 66.2817 143.66 66.8869C143.719 67.504 143.989 67.8838 144.484 68.0499C144.99 68.2279 145.449 68.0736 145.861 67.6227Z" fill="#DEDEDE"/>
</g>
</g>
<g id="Group_10">
<g id="Group_11">
<path id="Vector_9" d="M34.617 109.254L32.8632 117.015C31.9568 117.205 30.9799 117.288 29.9205 117.253C28.8612 117.229 27.8018 117.087 26.7307 116.837C25.0593 116.458 23.6821 115.805 22.5992 114.879C21.5163 113.965 20.7748 112.826 20.3864 111.473C19.9979 110.12 19.9862 108.637 20.3511 106.999C20.7159 105.409 21.3515 104.08 22.2932 103.035C23.2231 101.991 24.3648 101.291 25.7184 100.911C27.072 100.543 28.5551 100.543 30.1677 100.911C31.2741 101.16 32.2864 101.552 33.2045 102.062C34.1226 102.573 34.8406 103.166 35.335 103.807L33.4046 106.406C32.8043 105.777 32.204 105.29 31.5919 104.922C30.9799 104.566 30.309 104.293 29.5556 104.127C28.1903 103.819 27.0838 103.973 26.2363 104.59C25.3889 105.207 24.7886 106.323 24.4354 107.913C24.0588 109.563 24.1294 110.868 24.6473 111.829C25.1652 112.791 26.1539 113.431 27.6017 113.764C28.2726 113.918 28.9671 114.001 29.6733 114.013L30.3207 111.141L27.6488 110.524L28.2727 107.759L34.617 109.254Z" fill="#DEDEDE"/>
</g>
<g id="Group_12">
<path id="Vector_10" d="M36.8535 119.769L41.7736 104.685L45.7285 106.002L41.856 117.858L48.1768 119.959L47.1292 123.175L36.8535 119.769Z" fill="#DEDEDE"/>
</g>
<g id="Group_13">
<path id="Vector_11" d="M54.3565 123.234C53.3089 121.94 52.9204 120.172 53.1676 117.929L54.1799 108.803L58.2054 109.254L57.1696 118.534C57.0401 119.674 57.1931 120.576 57.6404 121.24C58.0759 121.905 58.7704 122.285 59.7003 122.391C60.6184 122.498 61.3717 122.273 61.9367 121.715C62.5017 121.157 62.8548 120.315 62.9725 119.199L64.0083 109.919L68.0692 110.381L67.0569 119.508C66.8097 121.727 66.0211 123.353 64.7028 124.385C63.3727 125.43 61.5953 125.821 59.3472 125.56C57.0637 125.299 55.404 124.528 54.3565 123.234Z" fill="#DEDEDE"/>
</g>
<g id="Group_14">
<path id="Vector_12" d="M76.3558 125.987L75.7791 113.515L71.0944 113.74L70.9414 110.358L84.5011 109.717L84.6541 113.099L79.9694 113.325L80.5462 125.797L76.3558 125.987Z" fill="#DEDEDE"/>
</g>
<g id="Group_15">
<path id="Vector_13" d="M91.0444 124.658L87.1602 109.266L98.0479 106.477L98.8365 109.586L91.8684 111.378L92.5981 114.274L99.119 112.601L99.9077 115.71L93.3868 117.383L94.1872 120.54L101.155 118.76L101.944 121.869L91.0444 124.658Z" fill="#DEDEDE"/>
</g>
<g id="Group_16">
<path id="Vector_14" d="M111.773 101.766L115.528 100.638L120.036 115.853L117.094 116.743L107.689 110.18L110.255 118.808L106.547 119.923L102.039 104.709L104.946 103.831L114.339 110.358L111.773 101.766Z" fill="#DEDEDE"/>
</g>
<g id="Group_17">
<path id="Vector_15" d="M132.654 114.357L132.312 98.4783L143.306 98.241L143.377 101.516L136.479 101.671L136.538 104.566L143 104.424L143.071 107.676L136.609 107.818L136.75 114.262L132.654 114.357Z" fill="#DEDEDE"/>
</g>
<g id="Group_18">
<path id="Vector_16" d="M160.88 115.722L156.502 115.223L155.066 109.741C154.901 109.123 154.383 108.768 153.512 108.661L152.017 108.495L151.323 114.63L147.262 114.167L149.039 98.3953L156.313 99.226C158.208 99.4396 159.574 100.009 160.433 100.947C161.292 101.872 161.634 103.095 161.469 104.626C161.351 105.694 160.963 106.572 160.315 107.284C159.668 107.996 158.809 108.459 157.749 108.661C158.173 108.803 158.55 109.052 158.867 109.42C159.185 109.788 159.409 110.251 159.55 110.821L160.88 115.722ZM156.89 105.492C157.314 105.267 157.561 104.863 157.632 104.282C157.702 103.676 157.549 103.213 157.196 102.905C156.843 102.596 156.207 102.383 155.313 102.288L152.723 101.991L152.347 105.385L154.936 105.682C155.819 105.777 156.466 105.718 156.89 105.492Z" fill="#DEDEDE"/>
</g>
<g id="Group_19">
<path id="Vector_17" d="M164.387 116.683L169.083 101.528L179.806 104.911L178.853 107.972L171.99 105.812L171.108 108.661L177.523 110.678L176.569 113.74L170.154 111.723L169.189 114.832L176.051 116.992L175.098 120.054L164.387 116.683Z" fill="#DEDEDE"/>
</g>
<g id="Group_20">
<path id="Vector_18" d="M179.666 121.869L183.644 106.513L194.509 109.385L193.708 112.494L186.752 110.654L185.999 113.55L192.508 115.271L191.707 118.38L185.198 116.659L184.386 119.804L191.342 121.644L190.542 124.753L179.666 121.869Z" fill="#DEDEDE"/>
</g>
</g>
</g>
</g>
</svg>
