<svg width="223" height="163" viewBox="0 0 223 163" fill="none" xmlns="http://www.w3.org/2000/svg">
<g id="Frame 2">
<g id="Group">
<path id="Vector" d="M9.10221 113.733L15.9456 98.0865C16.3476 97.1629 16.3476 96.112 15.9456 95.1884L9.10221 79.5415H21.3717V72.3231H3.60206C2.38568 72.3231 1.25395 72.9388 0.587583 73.9579C-0.0787804 74.9769 -0.184573 76.2614 0.301978 77.376L8.72138 96.6322L0.301978 115.888C-0.184573 117.003 -0.0787804 118.287 0.587583 119.306C1.25395 120.325 2.38568 120.941 3.60206 120.941H45.1598C43.7848 118.616 42.5155 116.207 41.3838 113.723H9.10221V113.733Z" fill="#DEDEDE"/>
<path id="Vector_2" d="M214.278 96.6426L222.698 77.3865C223.184 76.2719 223.079 74.9874 222.412 73.9683C221.746 72.9493 220.614 72.3336 219.398 72.3336H201.628V79.552H213.898L207.054 95.1989C206.652 96.1225 206.652 97.1734 207.054 98.097L213.898 113.744H181.616C180.484 116.228 179.225 118.627 177.84 120.962H219.398C220.614 120.962 221.746 120.347 222.412 119.328C223.079 118.308 223.184 117.024 222.698 115.909L214.278 96.6426Z" fill="#DEDEDE"/>
<g id="Group_2">
<path id="Vector_3" d="M78.6585 60.7949C85.5336 49.8505 97.6868 42.5578 111.501 42.5578C125.314 42.5578 137.468 49.8505 144.343 60.7949H148.521C141.265 47.7805 127.388 38.9486 111.501 38.9486C95.6137 38.9486 81.7364 47.7699 74.4805 60.7949H78.6585Z" fill="#DEDEDE"/>
<path id="Vector_4" d="M144.343 102.205C137.468 113.15 125.314 120.442 111.501 120.442C97.6868 120.442 85.5336 113.15 78.6585 102.205H74.4805C81.7364 115.22 95.6137 124.051 111.501 124.051C127.388 124.051 141.265 115.23 148.521 102.205H144.343Z" fill="#DEDEDE"/>
</g>
<g id="Group_3">
<g id="Group_4">
<g id="Group_5">
<path id="Vector_5" d="M40.9398 60.7949C49.8776 30.1591 78.1293 7.72901 111.5 7.72901C144.871 7.72901 173.123 30.1698 182.061 60.7949H189.549C185.964 47.0905 178.814 34.522 168.564 24.2252C153.323 8.92855 133.057 0.5 111.5 0.5C89.944 0.5 69.6781 8.92855 54.4363 24.2252C44.187 34.5114 37.0368 47.0799 33.4512 60.7949H40.9398Z" fill="#DEDEDE"/>
<path id="Vector_6" d="M182.061 102.205C173.123 132.841 144.871 155.271 111.5 155.271C78.1293 155.271 49.8776 132.83 40.9398 102.205H33.4512C37.0368 115.91 44.187 128.478 54.4363 138.775C69.6781 154.071 89.944 162.5 111.5 162.5C133.057 162.5 153.323 154.071 168.564 138.775C178.814 128.489 185.964 115.92 189.549 102.205H182.061Z" fill="#DEDEDE"/>
</g>
<path id="Vector_7" d="M201.628 105.814H21.3716C19.3831 105.814 17.7754 104.201 17.7754 102.205V60.7949C17.7754 58.7992 19.3831 57.1857 21.3716 57.1857H201.628C203.617 57.1857 205.224 58.7992 205.224 60.7949V102.205C205.224 104.201 203.617 105.814 201.628 105.814ZM24.9679 98.6066H198.042V64.4147H24.9679V98.6066Z" fill="#DEDEDE"/>
</g>
<g id="Group_6">
<g id="Group_7">
<path id="Vector_8" d="M45.7617 92.0675V70.89H50.5215C51.7801 70.89 52.9119 71.2191 53.9168 71.8879C54.7841 72.4505 55.3976 73.3209 55.7678 74.5098C55.9687 75.1361 56.0745 75.8898 56.0745 76.7602C56.0745 78.1827 55.6937 79.3185 54.9427 80.1678C54.6254 80.5287 54.2552 80.8047 53.8321 80.9957C54.5408 81.2611 55.1437 81.8025 55.6303 82.5986C55.9582 83.14 56.2014 83.8407 56.3495 84.6899C56.4235 85.1251 56.4658 85.6134 56.4658 86.1548C56.4658 87.4923 56.212 88.6281 55.7043 89.5623C55.313 90.2947 54.7524 90.8786 54.0437 91.3138C53.2398 91.8127 52.4359 92.0569 51.632 92.0569H45.7617V92.0675ZM49.1887 79.5414H50.5215C51.5051 79.5414 52.1715 79.0531 52.51 78.0872C52.6369 77.7262 52.6898 77.2804 52.6898 76.7496C52.6898 75.8685 52.4783 75.2104 52.0552 74.7539C51.6638 74.3399 51.1561 74.1277 50.5215 74.1277H49.1887V79.5414ZM49.1887 88.9148H50.5215C51.6003 88.9148 52.3407 88.3627 52.7638 87.2375C52.9119 86.8554 52.986 86.4202 52.986 85.9212C52.986 84.7429 52.7638 83.8831 52.309 83.3417C51.9071 82.8428 51.3147 82.5986 50.5215 82.5986H49.1887V88.9148Z" fill="#DEDEDE"/>
</g>
<g id="Group_8">
<path id="Vector_9" d="M68.9792 92.3011C67.5725 92.3011 66.3878 91.8128 65.4147 90.8362C64.4416 89.8596 63.9551 88.6707 63.9551 87.2695V70.9006H67.0648V87.227C67.0648 87.7365 67.2446 88.1611 67.6042 88.5221C67.9638 88.8724 68.3975 89.0528 68.8946 89.0528C69.4023 89.0528 69.8254 88.8724 70.1851 88.5221C70.5341 88.1718 70.7139 87.7365 70.7139 87.227V70.9006H74.0246V87.2695C74.0246 88.6919 73.5274 89.8808 72.5438 90.8468C71.5601 91.8234 70.3649 92.3011 68.9792 92.3011Z" fill="#DEDEDE"/>
</g>
<g id="Group_9">
<path id="Vector_10" d="M84.6854 74.1171H81.3008V70.9113H91.2327V74.1171H87.8692V92.0675H84.6854V74.1171Z" fill="#DEDEDE"/>
</g>
<g id="Group_10">
<path id="Vector_11" d="M103.207 92.3435C101.801 92.3435 100.616 91.8552 99.6323 90.868C98.6486 89.8807 98.1621 88.6918 98.1621 87.3012V75.7518C98.1621 74.34 98.6592 73.1511 99.6429 72.1638C100.627 71.1766 101.822 70.6884 103.207 70.6884C104.614 70.6884 105.799 71.1872 106.772 72.1745C107.745 73.1617 108.232 74.3612 108.232 75.7518V78.1721H104.931V75.6881C104.931 75.1786 104.752 74.7434 104.392 74.3825C104.032 74.0215 103.599 73.8411 103.091 73.8411C102.583 73.8411 102.16 74.0215 101.801 74.3825C101.452 74.7434 101.272 75.1786 101.272 75.6881V87.2694C101.272 87.779 101.452 88.2035 101.801 88.5645C102.15 88.9148 102.583 89.0952 103.091 89.0952C103.599 89.0952 104.032 88.9148 104.392 88.5645C104.752 88.2142 104.931 87.779 104.931 87.2694V84.3502H108.232V87.3012C108.232 88.7131 107.734 89.902 106.751 90.8786C105.767 91.8446 104.582 92.3435 103.207 92.3435Z" fill="#DEDEDE"/>
</g>
<g id="Group_11">
<path id="Vector_12" d="M118.766 83.0977V92.0675H115.582V70.9113H118.766V79.8918H122.605V70.9113H125.789V92.0675H122.605V83.0977H118.766Z" fill="#DEDEDE"/>
</g>
<g id="Group_12">
<path id="Vector_13" d="M133.361 92.0675V70.89H142.415V74.0958H136.545V79.8705H140.839V83.0764H136.545V88.8511H142.415V92.0569H133.361V92.0675Z" fill="#DEDEDE"/>
</g>
<g id="Group_13">
<path id="Vector_14" d="M154.357 70.9113C156.134 70.9113 157.435 71.3996 158.26 72.3762C158.99 73.236 159.35 74.4249 159.35 75.9535V79.032C159.35 80.5287 158.779 81.792 157.647 82.8323L160.006 92.0675H156.568L154.643 84.0955C154.548 84.0955 154.463 84.0955 154.357 84.0955H152.527V92.0675H149.344V70.9113H154.357ZM156.261 76.0066C156.261 74.7752 155.658 74.1702 154.442 74.1702H152.527V80.9427H154.442C154.95 80.9427 155.373 80.7622 155.732 80.4013C156.081 80.0404 156.261 79.6052 156.261 79.1063V76.0066Z" fill="#DEDEDE"/>
</g>
<g id="Group_14">
<path id="Vector_15" d="M169.78 83.2037L165.518 70.89H169.019L171.377 78.4905L173.715 70.89H177.237L172.964 83.2037V92.0675H169.78V83.2037Z" fill="#DEDEDE"/>
</g>
</g>
<g id="Group_15">
<path id="Vector_16" d="M68.4612 40.7849L68.1016 40.2966L72.343 36.2097L73.5277 37.8444L72.9565 38.2478L71.9623 37.5791L70.3863 39.0865L72.1738 40.9548L73.094 40.0737L72.7767 39.3837L73.2421 38.7043L74.7652 40.6151L74.3421 41.2307L73.5383 40.6469L72.6815 41.4749L73.9296 42.7806L75.0614 42.1543L75.4315 42.6532L72.7767 45.2009L72.4277 44.7338L72.8296 43.8633L69.4026 40.286L68.4612 40.7849Z" fill="#DEDEDE"/>
<path id="Vector_17" d="M81.7145 37.6215L78.8798 39.5429L78.6259 39.0228L79.2394 38.1948L76.5528 34.2246L75.622 34.6068L75.3047 34.0336C75.622 33.7363 76.0134 33.3967 76.4576 33.0251C76.9124 32.6536 77.2932 32.3563 77.6105 32.144C78.4144 31.592 79.1019 31.2948 79.6731 31.2417C80.2442 31.1887 80.7096 31.4222 81.0693 31.9636C81.2173 32.1865 81.3125 32.4519 81.3337 32.7385C81.3654 33.0251 81.3337 33.3223 81.2385 33.609C81.1539 33.8956 81.0269 34.1609 80.8471 34.3945L82.1587 34.8615C82.5184 34.9889 82.804 35.0845 83.0155 35.1376C83.227 35.2012 83.4492 35.2225 83.6713 35.2331C83.8934 35.2331 84.1155 35.2013 84.3482 35.1163L84.5386 35.0526L84.7396 35.5728C84.5704 35.7957 84.3376 36.008 84.052 36.1991C83.629 36.4857 83.1847 36.6237 82.7405 36.5918C82.2962 36.56 81.8202 36.4114 81.3125 36.1354L80.0538 35.4773L79.4933 35.8594L80.4664 37.3031L81.3866 37.0695L81.7145 37.6215ZM77.6 33.0357L79.0385 35.1694L79.8318 34.6386C79.9904 34.3945 80.075 34.1503 80.0856 33.8956C80.1068 33.6408 80.0221 33.386 79.8529 33.1313C79.7154 32.9189 79.5356 32.7597 79.324 32.6536C79.1125 32.5474 78.8904 32.505 78.6471 32.5262C78.4038 32.5474 78.1606 32.6429 77.9279 32.8022C77.8433 32.8659 77.7692 32.919 77.7057 32.9614C77.6528 32.9933 77.6106 33.0251 77.6 33.0357Z" fill="#DEDEDE"/>
<path id="Vector_18" d="M84.4759 28.6835L84.3066 28.0996L89.6905 25.6687L90.3568 27.5795L89.6693 27.7705L88.876 26.8258L86.8558 27.7387L87.8077 29.8724L88.9712 29.3416L88.8972 28.5985L89.553 28.1421L90.3251 30.3288L89.6905 30.7534L89.151 29.9891L88.0721 30.4774L88.9923 32.5262L91.1184 31.5708L91.2241 30.1696L91.8694 29.9679L92.5251 31.8362L87.0462 34.3096L86.8558 33.7576L87.5327 33.0782L85.5019 28.5455L84.4759 28.6835Z" fill="#DEDEDE"/>
<path id="Vector_19" d="M97.1475 30.52C96.6715 30.6474 96.2378 30.6898 95.8148 30.6474C95.4022 30.6049 95.0849 30.4882 94.8628 30.3077L94.5244 28.6198L95.2859 28.5243L95.7725 29.4478C95.9205 29.5752 96.1109 29.6602 96.3542 29.7026C96.5869 29.7451 96.8301 29.7345 97.0523 29.6708C97.2215 29.6283 97.3591 29.554 97.4966 29.4478C97.6235 29.3417 97.7186 29.2143 97.7715 29.0657C97.8244 28.9171 97.835 28.7578 97.7821 28.588C97.7398 28.4288 97.6446 28.3014 97.5071 28.2059C97.3696 28.1103 97.2004 28.036 97.0206 27.9935C96.8408 27.9405 96.5869 27.8874 96.2696 27.8343C95.8253 27.7494 95.4551 27.6751 95.1696 27.5796C94.884 27.4946 94.6195 27.346 94.3657 27.1337C94.1224 26.9214 93.9426 26.6348 93.8368 26.2632C93.7205 25.8386 93.731 25.4353 93.8791 25.0637C94.0272 24.6922 94.2705 24.3844 94.5983 24.1296C94.9262 23.8748 95.2964 23.6837 95.7195 23.5776C96.0157 23.4926 96.3331 23.4608 96.6927 23.4608C97.0417 23.4608 97.3273 23.5139 97.5283 23.62C97.5388 23.6519 97.5917 23.9067 97.6764 24.3843C97.761 24.862 97.8244 25.1805 97.8561 25.3503L97.1157 25.4352L96.7033 24.6073C96.5763 24.4905 96.4071 24.4162 96.1849 24.3631C95.9628 24.31 95.7513 24.3206 95.5503 24.3737C95.3282 24.4374 95.159 24.5542 95.0532 24.724C94.9475 24.8939 94.9368 25.0956 95.0003 25.3397C95.0426 25.5096 95.1484 25.6476 95.2965 25.7537C95.4446 25.8599 95.6244 25.9342 95.8253 25.9873C96.0263 26.0403 96.3013 26.0934 96.6398 26.1571C97.1052 26.242 97.4859 26.3269 97.7927 26.4119C98.0888 26.5074 98.3744 26.656 98.6283 26.8577C98.8821 27.07 99.0619 27.3566 99.1571 27.7176C99.284 28.1634 99.2524 28.588 99.0726 28.9702C98.8927 29.3523 98.6177 29.6814 98.2581 29.9467C97.9196 30.2334 97.5388 30.4138 97.1475 30.52Z" fill="#DEDEDE"/>
<path id="Vector_20" d="M101.451 22.9512L101.483 22.3249L104.91 21.9746L104.889 22.6009L104.011 22.9831L104.212 24.9363L107.121 24.6391L106.93 22.7071L105.915 22.4948L105.925 21.8685L109.373 21.5182L109.352 22.1445L108.474 22.5266L108.982 27.5052L109.987 27.6644V28.2907L106.56 28.641L106.57 28.0572L107.438 27.622L107.237 25.6051L104.328 25.9023L104.54 27.9616L105.555 28.1209L105.534 28.7472L102.128 29.0975V28.5137L103.006 28.0784L102.509 23.1635L101.451 22.9512Z" fill="#DEDEDE"/>
<path id="Vector_21" d="M117.307 28.5136L117.518 27.9192L118.481 27.7599L119.792 23.0043L118.872 22.5372L119.062 21.9321L121.76 22.4735L121.95 23.62L122.405 27.1549L124.33 24.0021L124.89 23.0998L127.545 23.6306L127.344 24.2357L126.414 24.3099L125.768 29.2461L126.667 29.7131L126.477 30.3395L123.336 29.7131L123.558 29.1187L124.362 28.9276L124.838 25.053L122.31 29.2779L121.188 29.2036L120.554 24.2569L119.549 27.9829L120.321 28.4287L120.099 29.055L117.307 28.5136Z" fill="#DEDEDE"/>
<path id="Vector_22" d="M131.162 25.4989L131.469 24.9788L136.927 27.2398L136.007 29.0338L135.393 28.6729L135.531 27.4415L133.479 26.5923L132.59 28.7578L133.775 29.2461L134.262 28.6835L135.044 28.8427L133.997 30.9127L133.246 30.7429L133.437 29.8193L132.347 29.3629L131.49 31.4329L133.648 32.3246L134.727 31.4329L135.319 31.7619L134.42 33.5241L128.867 31.2206L129.142 30.711L130.105 30.7323L131.998 26.1464L131.162 25.4989Z" fill="#DEDEDE"/>
<path id="Vector_23" d="M136.736 34.6812L137.107 34.2354L138.048 34.3203L142.977 30.7642L144.257 31.2737L142.86 37.4306L143.315 38.163L142.935 38.6513L140.089 36.8361L140.46 36.3903L141.464 36.5176L141.729 35.3394L139.867 34.1504L138.915 34.9041L139.571 35.764L139.18 36.2523L136.736 34.6812ZM140.586 33.5984L141.972 34.4795L142.575 32.038L140.586 33.5984Z" fill="#DEDEDE"/>
<path id="Vector_24" d="M149.514 35.2225L154.263 39.6067L152.687 41.0609L152.211 40.4559L152.888 39.3094L151.915 38.4071L148.414 42.2286L149.017 43.1203L148.53 43.5343L145.971 41.1777L146.404 40.785L147.314 41.1884L150.804 37.3774L149.853 36.4964L148.604 37.3032L148.15 36.7405L149.514 35.2225Z" fill="#DEDEDE"/>
</g>
<g id="Group_16">
<path id="Vector_25" d="M65.7748 120.315L63.9238 118.075L64.3152 117.842L64.9921 118.245L67.8692 115.846L67.5095 115.156L67.922 114.88C68.2605 115.188 68.5672 115.464 68.8211 115.718C69.0749 115.973 69.3394 116.249 69.6038 116.578C70.0375 117.098 70.2807 117.576 70.3442 118.022C70.4077 118.457 70.2173 118.871 69.773 119.232C69.5192 119.444 69.2336 119.561 68.9163 119.604C68.599 119.635 68.2816 119.593 67.9643 119.455C67.647 119.317 67.372 119.105 67.1287 118.807C67.0759 118.744 66.9912 118.638 66.896 118.5L67.2451 118.075L67.3403 118.192C67.5836 118.478 67.8374 118.638 68.1018 118.669C68.3663 118.701 68.6201 118.616 68.8634 118.404C69.1173 118.192 69.2653 117.948 69.3076 117.682C69.35 117.406 69.2653 117.13 69.0326 116.854C69.0009 116.812 68.9586 116.769 68.9057 116.716C68.8528 116.663 68.8211 116.631 68.7894 116.6L65.7854 119.105L66.2402 120.039L65.7748 120.315Z" fill="#DEDEDE"/>
<path id="Vector_26" d="M70.5352 125.336L68.5996 123.521L68.9486 123.234L69.6784 123.552L72.2064 120.835L71.7622 120.198L72.1429 119.858C72.4285 120.049 72.7459 120.283 73.1055 120.559C73.4651 120.835 73.7507 121.079 73.9728 121.281C74.5228 121.801 74.8719 122.268 75.0094 122.682C75.1469 123.107 75.0517 123.499 74.7132 123.86C74.5651 124.02 74.3959 124.126 74.1738 124.2C73.9622 124.274 73.7401 124.296 73.5074 124.285C73.2747 124.264 73.0526 124.211 72.8516 124.126L72.7247 125.198C72.6929 125.495 72.6718 125.718 72.6612 125.898C72.6506 126.068 72.6718 126.238 72.7036 126.408C72.7353 126.578 72.8093 126.737 72.9045 126.896L72.9891 127.034L72.6295 127.278C72.4286 127.183 72.2382 127.045 72.0372 126.864C71.741 126.588 71.5718 126.281 71.5189 125.941C71.466 125.601 71.4977 125.208 71.6141 124.784L71.8891 123.712L71.5083 123.351L70.5881 124.338L70.9266 124.996L70.5352 125.336ZM73.2747 121.429L71.9208 122.884L72.4602 123.393C72.6718 123.468 72.8728 123.489 73.0632 123.457C73.2535 123.425 73.4334 123.319 73.592 123.149C73.7295 123 73.8141 122.841 73.8564 122.671C73.8988 122.491 73.8988 122.321 73.8353 122.141C73.7825 121.96 73.666 121.79 73.5074 121.642C73.4439 121.589 73.3911 121.536 73.3488 121.504C73.3065 121.461 73.2853 121.44 73.2747 121.429Z" fill="#DEDEDE"/>
<path id="Vector_27" d="M77.4625 125.071L77.7798 124.731L81.4924 127.406L80.477 128.595L80.0856 128.213L80.4135 127.31L79.0173 126.313L77.9702 127.788L78.774 128.372L79.2394 128.032L79.8 128.298L78.6471 129.667L78.1183 129.402L78.425 128.743L77.6846 128.213L76.6797 129.624L78.15 130.686L79.1231 130.208L79.5145 130.569L78.5202 131.737L74.7441 129.019L75.0403 128.68L75.7595 128.871L77.9913 125.75L77.4625 125.071Z" fill="#DEDEDE"/>
<path id="Vector_28" d="M80.7832 133.234L81.0688 132.841L81.8198 132.926L83.8083 129.667L83.216 129.126L83.4804 128.712L85.3737 129.688L85.268 130.58L84.8449 133.308L86.9497 131.376L87.5526 130.824L89.4142 131.79L89.1392 132.193L88.4306 132.045L86.8969 135.58L87.468 136.121L87.193 136.546L84.993 135.399L85.2785 135.006L85.9132 135.038L87.0872 132.257L84.3054 134.858L83.4804 134.561L84.0622 130.75L82.5179 133.308L83.0045 133.807L82.7083 134.221L80.7832 133.234Z" fill="#DEDEDE"/>
<path id="Vector_29" d="M91.3077 133.011L91.5299 132.586L94.0473 133.51L93.8251 133.956L93.0636 133.913L91.752 137.512L92.3972 137.968L92.1751 138.425L89.6895 137.512L89.8798 137.098H90.652L91.9529 133.51L91.3077 133.011Z" fill="#DEDEDE"/>
<path id="Vector_30" d="M96.4704 135.038L95.7617 134.614L95.9627 134.168L98.5541 134.784L98.3848 135.229L97.6444 135.282L97.105 137.554C96.9887 138.053 97.0204 138.446 97.2002 138.743C97.38 139.04 97.6762 139.231 98.0781 139.337C98.4589 139.422 98.7762 139.38 99.0406 139.199C99.3051 139.019 99.4955 138.69 99.6012 138.212L100.151 135.898L99.4743 135.484L99.6435 135.028L101.822 135.548L101.653 136.004L100.923 136.057L100.384 138.265C100.194 139.051 99.8657 139.592 99.4109 139.889C98.956 140.187 98.3531 140.24 97.6233 140.07C97.232 139.974 96.8829 139.847 96.5867 139.667C96.2905 139.497 96.0684 139.231 95.9203 138.87C95.7723 138.509 95.7617 138.042 95.8992 137.469L96.4704 135.038Z" fill="#DEDEDE"/>
<path id="Vector_31" d="M103.197 141.142L103.303 140.664L104.033 140.452L104.593 136.673L103.843 136.408L103.927 135.919L106.053 136.079L106.307 136.949L106.984 139.624L108.169 137.023L108.518 136.28L110.612 136.44L110.517 136.928L109.808 137.066L109.766 140.919L110.506 141.195L110.422 141.694L107.946 141.503L108.063 141.025L108.666 140.802V137.777L107.121 141.259L106.254 141.312L105.302 137.575L104.868 140.537L105.503 140.802L105.387 141.301L103.197 141.142Z" fill="#DEDEDE"/>
<path id="Vector_32" d="M119.783 141.153C119.243 141.227 118.767 141.185 118.355 141.015C117.942 140.845 117.604 140.569 117.35 140.197C117.096 139.826 116.927 139.38 116.853 138.86C116.779 138.318 116.832 137.83 117.001 137.374C117.181 136.917 117.466 136.546 117.868 136.248C118.27 135.951 118.757 135.76 119.339 135.675C119.867 135.601 120.343 135.643 120.767 135.803C121.179 135.962 121.517 136.227 121.782 136.609C122.046 136.981 122.216 137.459 122.29 138.011C122.353 138.425 122.321 138.828 122.226 139.21C122.12 139.592 121.951 139.921 121.697 140.219C121.454 140.505 121.147 140.728 120.788 140.877C120.957 141.132 121.19 141.312 121.507 141.429C121.814 141.545 122.226 141.62 122.744 141.641C122.744 141.662 122.744 141.747 122.744 141.864C122.744 141.991 122.744 142.066 122.734 142.087C122.459 142.246 122.152 142.342 121.803 142.395C121.507 142.437 121.232 142.416 120.978 142.342C120.714 142.267 120.502 142.119 120.322 141.917C120.142 141.705 120.047 141.439 120.005 141.121C119.941 141.121 119.867 141.132 119.783 141.153ZM119.18 136.376C118.725 136.44 118.418 136.641 118.239 136.992C118.059 137.342 118.016 137.809 118.101 138.393C118.154 138.754 118.26 139.093 118.418 139.422C118.588 139.752 118.81 140.017 119.106 140.229C119.402 140.441 119.762 140.526 120.185 140.505C120.46 140.367 120.65 140.197 120.788 139.985C120.915 139.783 120.999 139.55 121.02 139.295C121.042 139.04 121.031 138.754 120.989 138.425C120.936 138.074 120.841 137.735 120.682 137.395C120.523 137.066 120.322 136.79 120.068 136.588C119.815 136.397 119.518 136.323 119.18 136.376Z" fill="#DEDEDE"/>
<path id="Vector_33" d="M124.701 135.527L123.876 135.505L123.834 135.017L126.383 134.274L126.457 134.752L125.844 135.166L126.489 137.406C126.626 137.894 126.848 138.234 127.155 138.403C127.451 138.573 127.811 138.594 128.213 138.478C128.583 138.372 128.848 138.17 128.985 137.883C129.123 137.597 129.133 137.214 128.996 136.747L128.34 134.455L127.547 134.433L127.473 133.956L129.63 133.329L129.704 133.807L129.091 134.221L129.704 136.408C129.916 137.193 129.905 137.819 129.651 138.308C129.398 138.785 128.911 139.136 128.181 139.348C127.79 139.465 127.42 139.518 127.081 139.507C126.743 139.497 126.415 139.38 126.108 139.146C125.801 138.913 125.569 138.499 125.41 137.936L124.701 135.527Z" fill="#DEDEDE"/>
<path id="Vector_34" d="M133.5 137.49L133.373 137.055L133.828 136.482L133.616 131.769L134.484 131.153L137.868 134.667L138.535 134.688L138.693 135.144L136.313 136.227L136.187 135.792L136.694 135.197L136.049 134.529L134.494 135.229L134.579 136.164L135.414 136.1L135.563 136.567L133.5 137.49ZM134.431 134.529L135.584 134.009L134.261 132.586L134.431 134.529Z" fill="#DEDEDE"/>
<path id="Vector_35" d="M141.031 133.849L140.84 133.435L141.285 132.852L139.317 129.656L138.503 129.784L138.312 129.348L140.629 127.905L140.819 128.34L140.322 129.009L142.342 132.289L143.643 131.535L143.612 130.261L144.098 130.049L144.786 131.514L141.031 133.849Z" fill="#DEDEDE"/>
<path id="Vector_36" d="M144.046 126.174L143.803 125.761L145.929 124.115L146.193 124.54L145.749 125.166L148.086 128.202L148.816 127.894L149.081 128.329L146.986 129.954L146.733 129.571L147.145 128.913L144.818 125.898L144.046 126.174Z" fill="#DEDEDE"/>
<path id="Vector_37" d="M147.451 122.873L151.069 119.402L152.116 120.697L151.629 121.037L150.783 120.463L150.043 121.175L152.814 124.083L153.533 123.659L153.829 124.062L151.883 125.93L151.597 125.569L151.957 124.89L149.196 121.992L148.477 122.682L149.038 123.69L148.583 124.02L147.451 122.873Z" fill="#DEDEDE"/>
<path id="Vector_38" d="M152.72 118.34L152.402 117.958L153.947 116.037L154.275 116.408L154.126 116.918L155.967 117.258L155.248 115.549L154.708 115.867L154.37 115.506L155.586 113.999L155.914 114.37L155.776 114.89L156.739 117.481L157.871 118.404L158.505 118.011L158.833 118.34L157.226 120.325L156.919 119.996L157.12 119.328L156.051 118.457L153.249 118.022L152.72 118.34Z" fill="#DEDEDE"/>
</g>
</g>
</g>
</g>
</svg>
