<svg width="214" height="171" viewBox="0 0 214 171" fill="none" xmlns="http://www.w3.org/2000/svg">
<g id="Frame 4">
<g id="Group">
<g id="Group_2">
<path id="Vector" d="M27.9995 63.97C31.6695 50.35 38.8494 37.86 49.0994 27.62C64.5194 12.2 85.0195 3.71002 106.829 3.71002C128.639 3.71002 149.139 12.2 164.559 27.62C174.799 37.86 181.989 50.35 185.659 63.97H188.969C185.229 49.49 177.679 36.21 166.829 25.35C150.799 9.32001 129.499 0.5 106.829 0.5C84.1595 0.5 62.8595 9.33001 46.8295 25.35C35.9695 36.21 28.4295 49.49 24.6895 63.97H27.9995Z" fill="#DEDEDE"/>
<path id="Vector_2" d="M185.659 106.73C181.989 120.35 174.809 132.84 164.559 143.08C149.139 158.5 128.639 166.99 106.829 166.99C85.0195 166.99 64.5194 158.5 49.0994 143.08C38.8594 132.84 31.6695 120.35 27.9995 106.73H24.6895C28.4295 121.21 35.9795 134.49 46.8295 145.35C62.8595 161.38 84.1595 170.2 106.829 170.2C129.499 170.2 150.799 161.37 166.829 145.35C177.689 134.49 185.229 121.21 188.969 106.73H185.659Z" fill="#DEDEDE"/>
</g>
<g id="Group_3">
<g id="Group_4">
<path id="Vector_3" d="M175.65 106.73C172.24 117.77 166.17 127.88 157.77 136.28C144.17 149.88 126.08 157.38 106.84 157.38C87.5996 157.38 69.5096 149.89 55.9096 136.28C47.5096 127.88 41.4396 117.76 38.0296 106.73H31.3496C34.9396 119.49 41.7596 131.18 51.3896 140.81C66.1996 155.62 85.8996 163.78 106.85 163.78C127.8 163.78 147.5 155.62 162.31 140.81C171.94 131.18 178.75 119.49 182.35 106.73H175.65Z" fill="#DEDEDE"/>
<path id="Vector_4" d="M38.0203 63.97C41.4303 52.93 47.5003 42.82 55.9003 34.42C69.5003 20.82 87.5903 13.32 106.83 13.32C126.07 13.32 144.16 20.81 157.76 34.42C166.16 42.82 172.23 52.94 175.64 63.97H182.32C178.73 51.21 171.91 39.52 162.28 29.89C147.47 15.08 127.77 6.92004 106.82 6.92004C85.8703 6.92004 66.1703 15.08 51.3603 29.89C41.7303 39.52 34.9203 51.21 31.3203 63.97H38.0203Z" fill="#DEDEDE"/>
</g>
<path id="Vector_5" d="M190.69 108.33H22.98C10.31 108.33 0 98.0201 0 85.3501C0 72.6801 10.31 62.3701 22.98 62.3701H190.69C203.36 62.3701 213.67 72.6801 213.67 85.3501C213.67 98.0301 203.36 108.33 190.69 108.33ZM22.98 65.5801C12.07 65.5801 3.19998 74.4501 3.19998 85.3601C3.19998 96.2701 12.07 105.14 22.98 105.14H190.69C201.6 105.14 210.47 96.2701 210.47 85.3601C210.47 74.4501 201.6 65.5801 190.69 65.5801H22.98Z" fill="#DEDEDE"/>
</g>
<g id="Group_5">
<path id="Vector_6" d="M106.831 23.13L110.481 34.35H122.271L112.731 41.28L116.371 52.5L106.831 45.57L97.2906 52.5L100.931 41.28L91.3906 34.35H103.191L106.831 23.13Z" fill="#DEDEDE"/>
</g>
<g id="Group_6">
<path id="Vector_7" d="M58.3194 124.38L59.0994 123.03L57.2994 120.63L55.7794 121L55.1094 120.1L61.6894 118.63L62.2294 119.35L58.9894 125.27L58.3194 124.38ZM58.2194 120.41L59.5794 122.22L60.9994 119.74L58.2194 120.41Z" fill="#DEDEDE"/>
<path id="Vector_8" d="M61.7402 127.43C61.7402 126.82 62.0403 126.21 62.6403 125.62L65.2402 123.04L66.0103 123.82L63.3702 126.44C62.9902 126.81 62.8002 127.18 62.7802 127.55C62.7602 127.92 62.9202 128.28 63.2702 128.62C63.6102 128.96 63.9603 129.12 64.3303 129.1C64.7003 129.08 65.0703 128.89 65.4503 128.52L68.0902 125.9L68.8602 126.68L66.2702 129.26C65.6802 129.85 65.0702 130.14 64.4602 130.14C63.8402 130.14 63.2402 129.84 62.6502 129.25C62.0302 128.65 61.7402 128.05 61.7402 127.43Z" fill="#DEDEDE"/>
<path id="Vector_9" d="M68.2695 134.19L71.4695 130.06L69.8896 128.83L70.4496 128.11L74.4996 131.26L73.9396 131.98L72.3495 130.75L69.1495 134.88L68.2695 134.19Z" fill="#DEDEDE"/>
<path id="Vector_10" d="M79.9788 134.62L80.9288 135.18L77.8387 140.48L76.8888 139.92L78.2288 137.62L75.5088 136.03L74.1688 138.33L73.2188 137.78L76.3088 132.48L77.2588 133.03L75.9587 135.25L78.6788 136.84L79.9788 134.62Z" fill="#DEDEDE"/>
<path id="Vector_11" d="M81.0293 142.02L83.3993 136.36L87.1893 137.95L86.8493 138.76L84.0693 137.59L83.4093 139.16L86.0293 140.26L85.6893 141.07L83.0693 139.97L82.3693 141.63L85.1493 142.8L84.8093 143.61L81.0293 142.02Z" fill="#DEDEDE"/>
<path id="Vector_12" d="M93.4791 139.86L94.4891 140.14L92.8691 146.06L92.0692 145.84L90.0092 140.82L88.8691 144.97L87.8691 144.7L89.4891 138.78L90.2891 139L92.3391 144.01L93.4791 139.86Z" fill="#DEDEDE"/>
<path id="Vector_13" d="M97.7797 146.92L98.4897 141.74L96.5098 141.47L96.6298 140.56L101.71 141.25L101.59 142.16L99.5997 141.89L98.8898 147.07L97.7797 146.92Z" fill="#DEDEDE"/>
<path id="Vector_14" d="M103.729 147.5L103.979 141.36L105.089 141.4L104.839 147.54L103.729 147.5Z" fill="#DEDEDE"/>
<path id="Vector_15" d="M109.429 147.22C108.959 146.99 108.599 146.64 108.329 146.18C108.059 145.72 107.909 145.17 107.869 144.54C107.829 143.91 107.919 143.35 108.129 142.86C108.339 142.37 108.669 141.99 109.099 141.71C109.539 141.43 110.049 141.27 110.659 141.23C111.069 141.21 111.469 141.25 111.839 141.36C112.209 141.47 112.529 141.63 112.779 141.84L112.469 142.67C112.179 142.46 111.899 142.32 111.619 142.23C111.339 142.15 111.049 142.11 110.739 142.13C110.149 142.16 109.699 142.38 109.399 142.79C109.099 143.19 108.969 143.75 109.009 144.47C109.049 145.19 109.249 145.74 109.589 146.11C109.929 146.48 110.399 146.65 110.999 146.61C111.309 146.59 111.599 146.52 111.859 146.41C112.119 146.3 112.389 146.12 112.649 145.87L113.059 146.66C112.829 146.9 112.539 147.1 112.179 147.25C111.819 147.4 111.439 147.49 111.019 147.51C110.429 147.55 109.899 147.45 109.429 147.22Z" fill="#DEDEDE"/>
<path id="Vector_16" d="M125.499 144.79L124.369 145.09L123.089 143.32C122.969 143.15 122.839 143.05 122.679 143.02C122.519 142.98 122.329 143 122.109 143.06L121.029 143.35L121.689 145.82L120.619 146.1L119.039 140.17L121.579 139.49C122.249 139.31 122.799 139.32 123.229 139.52C123.659 139.72 123.949 140.1 124.089 140.65C124.199 141.04 124.179 141.41 124.049 141.74C123.909 142.07 123.669 142.35 123.319 142.56C123.689 142.54 124.009 142.72 124.269 143.09L125.499 144.79ZM122.129 142.15C122.539 142.04 122.819 141.89 122.969 141.68C123.119 141.48 123.159 141.22 123.079 140.92C122.999 140.62 122.839 140.42 122.609 140.33C122.379 140.23 122.059 140.24 121.649 140.35L120.309 140.71L120.789 142.51L122.129 142.15Z" fill="#DEDEDE"/>
<path id="Vector_17" d="M128.519 143.72L126.199 138.03L129.999 136.48L130.329 137.29L127.529 138.43L128.169 140L130.799 138.93L131.129 139.75L128.499 140.82L129.179 142.49L131.979 141.35L132.309 142.16L128.519 143.72Z" fill="#DEDEDE"/>
<path id="Vector_18" d="M136.099 139.93C135.579 139.92 135.099 139.77 134.659 139.48C134.219 139.18 133.839 138.76 133.529 138.2C133.219 137.65 133.059 137.11 133.029 136.57C133.009 136.04 133.129 135.55 133.399 135.11C133.669 134.67 134.069 134.3 134.589 134C134.949 133.8 135.32 133.66 135.7 133.6C136.08 133.53 136.43 133.54 136.76 133.63L136.839 134.51C136.489 134.45 136.17 134.44 135.88 134.49C135.59 134.54 135.309 134.63 135.039 134.79C134.519 135.08 134.22 135.47 134.12 135.97C134.02 136.46 134.15 137.03 134.5 137.65C134.85 138.28 135.27 138.69 135.74 138.87C136.21 139.05 136.709 139 137.229 138.7C137.499 138.55 137.729 138.36 137.919 138.14C138.109 137.92 138.269 137.64 138.399 137.31L139.109 137.84C139.01 138.16 138.84 138.46 138.58 138.76C138.32 139.05 138.019 139.3 137.659 139.5C137.149 139.79 136.629 139.94 136.099 139.93Z" fill="#DEDEDE"/>
<path id="Vector_19" d="M142.059 136.65L138.529 131.62L139.439 130.98L142.969 136.01L142.059 136.65Z" fill="#DEDEDE"/>
<path id="Vector_20" d="M141.719 129.32L143.739 127.58C144.239 127.15 144.739 126.93 145.219 126.94C145.709 126.94 146.129 127.15 146.489 127.57C146.849 127.99 146.989 128.44 146.919 128.93C146.849 129.42 146.559 129.87 146.069 130.3L144.889 131.31L146.559 133.25L145.719 133.98L141.719 129.32ZM145.409 129.73C145.699 129.48 145.869 129.23 145.919 128.98C145.969 128.73 145.889 128.49 145.699 128.27C145.499 128.04 145.279 127.93 145.019 127.93C144.769 127.94 144.489 128.07 144.199 128.32L143.119 129.25L144.329 130.66L145.409 129.73Z" fill="#DEDEDE"/>
<path id="Vector_21" d="M151.569 128.64L147.029 124.51L149.789 121.47L150.439 122.06L148.409 124.29L149.669 125.43L151.579 123.33L152.229 123.92L150.319 126.02L151.649 127.23L153.679 125L154.329 125.59L151.569 128.64Z" fill="#DEDEDE"/>
<path id="Vector_22" d="M156.63 122.5C156.29 122.76 155.94 122.94 155.58 123.04L155.14 122.26C155.5 122.15 155.809 121.99 156.089 121.79C156.369 121.59 156.609 121.33 156.839 121.02C157.089 120.67 157.219 120.36 157.229 120.09C157.239 119.81 157.139 119.6 156.919 119.44C156.729 119.31 156.529 119.29 156.299 119.39C156.069 119.49 155.769 119.72 155.399 120.05C154.819 120.58 154.319 120.91 153.899 121.04C153.479 121.17 153.069 121.09 152.649 120.8C152.359 120.59 152.149 120.32 152.029 120C151.909 119.68 151.899 119.32 151.969 118.94C152.049 118.55 152.22 118.17 152.5 117.79C152.75 117.44 153.039 117.14 153.369 116.9C153.699 116.66 154.029 116.51 154.359 116.44L154.799 117.21C154.129 117.4 153.599 117.77 153.209 118.3C152.979 118.62 152.859 118.93 152.859 119.21C152.859 119.49 152.97 119.72 153.2 119.88C153.4 120.02 153.61 120.04 153.83 119.95C154.05 119.86 154.349 119.64 154.729 119.3C155.129 118.95 155.469 118.69 155.779 118.51C156.079 118.33 156.369 118.23 156.649 118.22C156.929 118.21 157.209 118.3 157.479 118.49C157.779 118.7 157.979 118.97 158.089 119.29C158.199 119.61 158.209 119.96 158.119 120.35C158.029 120.74 157.839 121.13 157.549 121.54C157.279 121.92 156.97 122.24 156.63 122.5Z" fill="#DEDEDE"/>
</g>
<g id="Group_7">
<path id="Vector_23" d="M26.4405 92.94H18.9805L19.1605 91.6801L21.2705 90.9301V80.5L19.1205 80.05L19.2505 78.64C20.1905 78.49 21.3005 78.3601 22.5705 78.2401C23.8405 78.1201 24.9005 78.0601 25.7305 78.0601C27.8505 78.0601 29.4505 78.3601 30.5505 78.9601C31.6405 79.5601 32.1905 80.5601 32.1905 81.9601C32.1905 82.5501 32.0405 83.1301 31.7305 83.6801C31.4305 84.2301 31.0205 84.72 30.5105 85.13C30.0005 85.55 29.4505 85.8601 28.8505 86.0601L30.6405 88.5C31.1305 89.16 31.5305 89.68 31.8505 90.05C32.1705 90.42 32.5205 90.7401 32.9105 91.0201C33.3005 91.3 33.7504 91.5 34.2704 91.64L34.7005 91.76L34.4305 92.95C33.8405 93.14 33.1805 93.23 32.4305 93.23C31.3105 93.23 30.3605 92.93 29.5905 92.33C28.8205 91.73 28.1505 90.8701 27.5605 89.7701L26.0905 87.04H24.6205V90.8401L26.5805 91.54L26.4405 92.94ZM24.6105 79.66V85.25H26.6905C27.2605 85.01 27.7205 84.66 28.0605 84.22C28.4005 83.78 28.5805 83.23 28.5805 82.57C28.5805 82.02 28.4604 81.52 28.2104 81.07C27.9704 80.62 27.6105 80.27 27.1505 80.01C26.6905 79.75 26.1405 79.6201 25.5205 79.6201C25.2905 79.6201 25.0905 79.63 24.9205 79.64C24.7405 79.65 24.6405 79.66 24.6105 79.66Z" fill="#DEDEDE"/>
<path id="Vector_24" d="M37.6406 79.48L37.8206 78.17H50.6806L50.3106 82.55L48.7806 82.32L48.0406 79.73H43.2106V84.8101H46.0006L46.5206 83.2801L48.2306 82.9601L47.8306 87.9901L46.1806 88.26L45.7906 86.26H43.2206V91.14H48.3106L49.7606 88.4601L51.2306 88.64L50.8706 92.9301H37.7706L37.8906 91.67L39.8506 90.92V80.14L37.6406 79.48Z" fill="#DEDEDE"/>
<path id="Vector_25" d="M58.8597 93.22C57.7897 93.22 56.8397 93.05 55.9897 92.72C55.1497 92.39 54.5397 91.97 54.1797 91.46L54.4497 87.73L56.1097 87.98L56.5797 90.2C56.8197 90.55 57.1697 90.83 57.6497 91.06C58.1197 91.29 58.6197 91.4 59.1397 91.4C59.5097 91.4 59.8597 91.33 60.1997 91.18C60.5297 91.03 60.7997 90.82 60.9997 90.55C61.1997 90.27 61.2997 89.94 61.2997 89.57C61.2997 89.21 61.1797 88.88 60.9397 88.6C60.6997 88.32 60.3997 88.07 60.0397 87.86C59.6797 87.65 59.1797 87.4 58.5497 87.09C57.6597 86.66 56.9297 86.28 56.3797 85.93C55.8297 85.58 55.3597 85.12 54.9597 84.54C54.5597 83.96 54.3597 83.25 54.3597 82.42C54.3597 81.46 54.6197 80.63 55.1497 79.95C55.6797 79.27 56.3597 78.75 57.1997 78.41C58.0397 78.07 58.9297 77.89 59.8797 77.89C60.5397 77.89 61.2497 78 61.9897 78.21C62.7297 78.42 63.2897 78.7 63.6597 79.03C63.6597 79.11 63.6197 79.67 63.5297 80.71C63.4397 81.75 63.3797 82.47 63.3497 82.85L61.7397 82.59L61.3597 80.62C61.1697 80.31 60.8597 80.04 60.4197 79.81C59.9797 79.58 59.5397 79.46 59.0897 79.46C58.5797 79.46 58.1597 79.61 57.8497 79.9C57.5397 80.2 57.3797 80.62 57.3797 81.16C57.3797 81.55 57.5097 81.89 57.7697 82.2C58.0297 82.5 58.3597 82.77 58.7397 82.99C59.1297 83.22 59.6697 83.49 60.3697 83.81C61.2997 84.25 62.0597 84.66 62.6397 85.02C63.2197 85.38 63.7097 85.86 64.1297 86.44C64.5497 87.03 64.7497 87.73 64.7497 88.55C64.7497 89.56 64.4497 90.42 63.8397 91.12C63.2297 91.82 62.4697 92.34 61.5597 92.69C60.6397 93.05 59.7497 93.22 58.8597 93.22Z" fill="#DEDEDE"/>
<path id="Vector_26" d="M67.6406 78.1801H81.7206L81.3306 82.8401L79.6806 82.57L79.0706 79.75H76.1806V91.0301L78.4706 91.5601L78.2906 92.94H70.7206L70.8406 91.67L72.8906 90.98V79.7401H70.0806L69.2506 82.8701L67.7006 82.64L67.6406 78.1801Z" fill="#DEDEDE"/>
<path id="Vector_27" d="M84.6211 92.94L84.7911 91.68L86.6211 90.74L91.5311 78.45L94.4711 77.88L99.1011 90.79L100.801 91.61L100.671 92.95H93.3011L93.4711 91.69L95.4811 90.75L94.6011 88.28H89.8011L88.9211 90.77L91.1411 91.58L90.9911 92.93H84.6211V92.94ZM90.4311 86.43H94.0011L92.2711 81.26L90.4311 86.43Z" fill="#DEDEDE"/>
<path id="Vector_28" d="M105.941 80.2101L103.721 79.5201L103.971 78.1801H111.461L111.281 79.5201L109.291 80.1501V86.7C109.291 88.14 109.631 89.2101 110.311 89.9001C110.991 90.5901 111.921 90.94 113.111 90.94C114.201 90.94 115.051 90.61 115.661 89.94C116.271 89.28 116.571 88.26 116.571 86.89L116.581 80.2101L114.461 79.5201L114.631 78.1801H120.941L120.771 79.5201L118.801 80.1501L118.751 86.5301C118.731 88.8101 118.181 90.5 117.121 91.6C116.061 92.7 114.461 93.25 112.331 93.25C111.181 93.25 110.151 93.11 109.231 92.83C108.311 92.55 107.531 91.98 106.891 91.1C106.251 90.22 105.931 88.9501 105.931 87.2801V80.2101H105.941Z" fill="#DEDEDE"/>
<path id="Vector_29" d="M131.271 92.94H123.811L123.991 91.6801L126.101 90.9301V80.5L123.951 80.05L124.081 78.64C125.021 78.49 126.131 78.3601 127.401 78.2401C128.671 78.1201 129.731 78.0601 130.561 78.0601C132.681 78.0601 134.281 78.3601 135.381 78.9601C136.471 79.5601 137.021 80.5601 137.021 81.9601C137.021 82.5501 136.871 83.1301 136.561 83.6801C136.261 84.2301 135.851 84.72 135.341 85.13C134.831 85.55 134.281 85.8601 133.681 86.0601L135.471 88.5C135.961 89.16 136.361 89.68 136.681 90.05C137.001 90.42 137.351 90.7401 137.741 91.0201C138.131 91.3 138.581 91.5 139.101 91.64L139.531 91.76L139.261 92.95C138.671 93.14 138.011 93.23 137.261 93.23C136.141 93.23 135.191 92.93 134.421 92.33C133.651 91.73 132.981 90.8701 132.391 89.7701L130.921 87.04H129.451V90.8401L131.411 91.54L131.271 92.94ZM129.441 79.66V85.25H131.521C132.091 85.01 132.551 84.66 132.891 84.22C133.231 83.78 133.411 83.23 133.411 82.57C133.411 82.02 133.291 81.52 133.041 81.07C132.801 80.62 132.441 80.27 131.981 80.01C131.521 79.75 130.971 79.6201 130.351 79.6201C130.121 79.6201 129.921 79.63 129.751 79.64C129.571 79.65 129.471 79.66 129.441 79.66Z" fill="#DEDEDE"/>
<path id="Vector_30" d="M142.461 92.94L142.631 91.68L144.461 90.74L149.371 78.45L152.311 77.88L156.941 90.79L158.641 91.61L158.511 92.95H151.151L151.321 91.69L153.321 90.75L152.441 88.28H147.641L146.761 90.77L148.981 91.58L148.831 92.93H142.461V92.94ZM148.281 86.43H151.851L150.121 81.26L148.281 86.43Z" fill="#DEDEDE"/>
<path id="Vector_31" d="M161.691 79.55L161.841 78.17H166.531L173.491 88.16V80.2L171.281 79.51L171.491 78.17H177.731L177.491 79.51L175.511 80.14V92.83L172.921 93.2801L165.941 83.55V91L168.091 91.57L167.951 92.92H161.691L161.811 91.66L163.801 90.91V80.3401L161.691 79.55Z" fill="#DEDEDE"/>
<path id="Vector_32" d="M180.611 78.1801H194.691L194.301 82.8401L192.651 82.57L192.041 79.75H189.151V91.0301L191.441 91.5601L191.261 92.94H183.691L183.811 91.67L185.861 90.98V79.7401H183.051L182.221 82.8701L180.671 82.64L180.611 78.1801Z" fill="#DEDEDE"/>
</g>
</g>
</g>
</svg>
