<svg width="639" height="430" viewBox="0 0 639 430" fill="none" xmlns="http://www.w3.org/2000/svg">
<g clip-path="url(#clip0_2_3001)">
<path d="M509.048 190.351L510.945 175.115C511.619 169.7 514.412 164.775 518.71 161.424C523.007 158.072 528.457 156.569 533.86 157.245C539.264 157.92 544.178 160.719 547.522 165.026C550.866 169.333 552.366 174.794 551.692 180.209L549.795 195.446C549.704 196.173 549.328 196.834 548.751 197.284C548.174 197.734 547.443 197.936 546.717 197.846L511.444 193.436C510.718 193.344 510.058 192.968 509.609 192.39C509.16 191.812 508.959 191.078 509.048 190.351Z" fill="#2F2E41"/>
<path d="M525.944 194.897C534.258 194.897 540.997 188.143 540.997 179.812C540.997 171.481 534.258 164.727 525.944 164.727C517.631 164.727 510.892 171.481 510.892 179.812C510.892 188.143 517.631 194.897 525.944 194.897Z" fill="#FFB8B8"/>
<path d="M505.973 175.731C506.511 171.45 508.722 167.557 512.12 164.907C515.519 162.257 519.827 161.066 524.1 161.595L527.141 161.976C531.414 162.515 535.298 164.73 537.942 168.135C540.587 171.541 541.775 175.859 541.247 180.141L541.209 180.446L534.783 179.643L533.357 173.218L532.153 179.314L528.831 178.898L528.112 175.657L527.504 178.733L505.936 176.036L505.973 175.731Z" fill="#2F2E41"/>
<path d="M452.322 233.623C452.782 234.529 453.434 235.322 454.233 235.947C455.032 236.572 455.958 237.014 456.946 237.242C457.934 237.469 458.96 237.477 459.951 237.265C460.942 237.052 461.875 236.624 462.683 236.011L476.356 244.038L483.249 236.901L463.783 225.838C462.665 224.545 461.113 223.708 459.421 223.485C457.729 223.263 456.014 223.669 454.601 224.629C453.189 225.589 452.176 227.034 451.756 228.692C451.336 230.35 451.537 232.104 452.322 233.623Z" fill="#FFB8B8"/>
<path d="M497.132 248.046C487.047 248.046 469.3 243.521 468.318 243.268L468.007 243.189L470.8 229.017L497.906 234.383L512.632 213.602L529.538 211.879L529.066 212.502C528.846 212.792 507.053 241.541 503.662 246.364C502.806 247.581 500.361 248.046 497.132 248.046Z" fill="#3F3D56"/>
<path d="M499.835 301.235L499.432 301.042C499.346 301 490.778 296.824 486.34 288.67C481.923 280.555 502.599 246.132 504.045 243.743L504.066 232.811L511.504 212.686L520.99 207.313L512.846 226.357L499.835 301.235Z" fill="#3F3D56"/>
<path d="M490.332 418.733L481.267 418.732L476.954 383.689L490.334 383.69L490.332 418.733Z" fill="#FFB8B8"/>
<path d="M492.644 427.539L463.412 427.538V427.168C463.412 424.144 464.611 421.244 466.745 419.105C468.879 416.967 471.772 415.766 474.79 415.766H474.791L492.644 415.766L492.644 427.539Z" fill="#2F2E41"/>
<path d="M587.709 410.771L579.094 413.599L564.106 381.645L576.821 377.47L587.709 410.771Z" fill="#FFB8B8"/>
<path d="M592.642 418.418L564.864 427.539L564.749 427.187C563.809 424.313 564.047 421.183 565.41 418.486C566.774 415.788 569.15 413.743 572.018 412.801L572.018 412.801L588.985 407.23L592.642 418.418Z" fill="#2F2E41"/>
<path d="M570.156 405.042L544.312 361.804L522.496 315.61L502.863 356.415L495.064 409.264L467.714 409.645L467.822 409.216L509.677 242.552L542.457 247.46L540.965 269.144L541.853 270.41C549.258 280.952 556.915 291.852 552.523 303.601L564.972 340.644L592.528 402.324L570.156 405.042Z" fill="#2F2E41"/>
<path d="M511.174 278.673C506.424 278.673 501.005 273.238 503.817 263.959L503.635 263.827L510.387 233.928C504.494 225.482 512.264 218.511 512.992 217.888L516.701 211.198L533.065 200.798L541.345 269.739L541.222 269.857C535.242 275.591 515.159 278.673 511.174 278.673Z" fill="#FF5300"/>
<path d="M544.688 294.23C544.037 294.24 543.388 294.171 542.755 294.025C542.118 293.865 541.088 293.053 539.496 287.858C533.166 267.206 525.693 205.066 531.122 198.985L531.247 198.846L540.161 200.335C540.902 199.787 544.791 197.066 548.379 197.539C549.117 197.632 549.829 197.876 550.47 198.256C551.111 198.636 551.668 199.143 552.105 199.747L552.167 199.827L555.006 240.316L565.41 287.963L565.161 288.076C564.556 288.352 551.564 294.23 544.688 294.23Z" fill="#3F3D56"/>
<path d="M538.692 278.405C539.706 278.371 540.699 278.115 541.603 277.655C542.506 277.194 543.298 276.541 543.923 275.741C544.547 274.941 544.989 274.013 545.217 273.023C545.446 272.033 545.454 271.006 545.243 270.012L558.293 261.005L554.765 251.723L536.515 264.702C534.873 265.168 533.458 266.222 532.54 267.663C531.621 269.105 531.262 270.834 531.53 272.523C531.799 274.212 532.676 275.743 533.996 276.828C535.316 277.912 536.987 278.473 538.692 278.405Z" fill="#FFB8B8"/>
<path d="M553.987 268.222L542.363 259.68L558.702 237.352L546.163 215.177L551.773 199.102L552.135 199.794C552.304 200.117 569.049 232.084 571.97 237.207C575.009 242.536 555.042 266.938 554.19 267.974L553.987 268.222Z" fill="#3F3D56"/>
<path d="M292.522 368.718L282.629 364.543L275.842 314.844H185.469L178.113 364.34L169.262 368.775C168.838 368.987 168.499 369.337 168.298 369.766C168.098 370.196 168.048 370.681 168.156 371.143C168.265 371.605 168.526 372.016 168.898 372.311C169.269 372.605 169.728 372.765 170.202 372.765H291.706C292.192 372.765 292.662 372.597 293.038 372.289C293.413 371.981 293.671 371.552 293.767 371.076C293.863 370.599 293.791 370.104 293.564 369.674C293.337 369.244 292.969 368.906 292.522 368.718Z" fill="#E6E6E6"/>
<path d="M453.122 321.456H9.18087C6.85163 321.451 4.61958 320.52 2.97441 318.868C1.32924 317.215 0.405289 314.976 0.405273 312.642V249.907H461.898V312.642C461.898 314.976 460.974 317.215 459.329 318.868C457.684 320.52 455.452 321.451 453.122 321.456Z" fill="#CCCCCC"/>
<path d="M462.362 279.557H0V11.1252C0.00324784 8.30816 1.12139 5.60743 3.10912 3.61551C5.09685 1.62359 7.79185 0.503159 10.6029 0.5H451.759C454.57 0.503152 457.265 1.62359 459.253 3.6155C461.241 5.60742 462.359 8.30814 462.362 11.1252V279.557Z" fill="#3F3D56"/>
<path d="M434.747 260.074H27.615C25.4478 260.072 23.3702 259.208 21.8377 257.673C20.3053 256.137 19.4434 254.055 19.4409 251.883V28.1742C19.4433 26.0024 20.3053 23.9202 21.8377 22.3845C23.3701 20.8488 25.4478 19.9849 27.615 19.9824H434.747C436.914 19.9849 438.992 20.8488 440.524 22.3845C442.057 23.9202 442.918 26.0024 442.921 28.1742V251.883C442.918 254.055 442.057 256.137 440.524 257.673C438.992 259.208 436.914 260.072 434.747 260.074Z" fill="white"/>
<path d="M345.361 373.284H116.588C116.354 373.288 116.125 373.216 115.936 373.076C115.747 372.937 115.61 372.739 115.545 372.513C115.505 372.36 115.5 372.199 115.531 372.043C115.563 371.887 115.629 371.741 115.726 371.615C115.823 371.489 115.947 371.387 116.089 371.317C116.231 371.246 116.388 371.21 116.546 371.21H345.277C345.524 371.201 345.767 371.276 345.966 371.424C346.165 371.571 346.308 371.781 346.372 372.021C346.406 372.172 346.405 372.33 346.37 372.481C346.335 372.632 346.266 372.774 346.169 372.895C346.072 373.016 345.949 373.114 345.809 373.181C345.67 373.248 345.517 373.283 345.361 373.284Z" fill="#CCCCCC"/>
<path d="M430.401 56.1494H332.101V131.409H430.401V56.1494Z" fill="#F2F2F2"/>
<path d="M425.516 59.8887H336.985V127.669H425.516V59.8887Z" fill="white"/>
<path d="M382.805 110.165C382.817 110.165 382.828 110.165 382.84 110.164C388.833 109.85 394.481 107.26 398.637 102.921C402.792 98.5826 405.142 92.8205 405.21 86.8071C405.277 80.7936 403.056 74.9802 398.999 70.5492C394.942 66.1181 389.353 63.402 383.368 62.9533C383.294 62.9475 383.22 62.9571 383.15 62.9814C383.08 63.0058 383.015 63.0444 382.961 63.0949C382.906 63.1445 382.863 63.2048 382.833 63.2721C382.803 63.3394 382.787 63.4122 382.787 63.4859L382.271 109.619C382.269 109.762 382.325 109.9 382.425 110.002C382.525 110.105 382.662 110.163 382.805 110.165Z" fill="#3F3D56"/>
<path d="M364.293 70.5816C364.477 70.5838 364.653 70.6589 364.781 70.7904L380.629 87.0321C380.693 87.097 380.743 87.174 380.777 87.2586C380.811 87.3432 380.827 87.4336 380.826 87.5247L380.579 109.599C380.578 109.694 380.558 109.788 380.52 109.874C380.481 109.961 380.425 110.038 380.355 110.102C380.285 110.167 380.203 110.216 380.113 110.247C380.023 110.279 379.927 110.291 379.832 110.284C375.426 109.954 371.199 108.398 367.626 105.793C364.054 103.187 361.277 99.6351 359.607 95.5351C357.938 91.4351 357.443 86.9499 358.178 82.5834C358.912 78.2169 360.847 74.1423 363.765 70.8172C363.829 70.7456 363.906 70.6877 363.992 70.6472C364.079 70.6067 364.172 70.5844 364.268 70.5818C364.276 70.5815 364.285 70.5815 364.293 70.5816Z" fill="#E6E6E6"/>
<path d="M380.408 62.7647C380.585 62.7668 380.755 62.8362 380.883 62.9589C380.951 63.0243 381.006 63.1032 381.042 63.1906C381.079 63.2781 381.097 63.3722 381.096 63.467L380.873 83.3841C380.871 83.5213 380.829 83.6549 380.752 83.768C380.674 83.8812 380.565 83.9689 380.438 84.0199C380.311 84.071 380.172 84.0832 380.038 84.0549C379.904 84.0267 379.782 83.9593 379.686 83.8612L365.857 69.6884C365.791 69.621 365.74 69.5409 365.706 69.453C365.672 69.3651 365.657 69.2712 365.66 69.1771C365.664 69.0829 365.686 68.9904 365.726 68.9053C365.767 68.8201 365.824 68.7441 365.894 68.6817C369.916 65.134 375.015 63.0495 380.366 62.7655C380.38 62.7648 380.394 62.7645 380.408 62.7647Z" fill="#FF5300"/>
<path d="M373.284 119.731C373.275 120.571 373.017 121.39 372.544 122.083C372.07 122.777 371.402 123.314 370.624 123.627C369.845 123.94 368.992 124.014 368.171 123.841C367.351 123.668 366.6 123.255 366.014 122.654C365.428 122.053 365.032 121.292 364.878 120.466C364.724 119.64 364.817 118.787 365.147 118.014C365.476 117.241 366.027 116.584 366.729 116.125C367.432 115.666 368.254 115.426 369.093 115.435C370.217 115.449 371.289 115.909 372.075 116.715C372.861 117.52 373.296 118.605 373.284 119.731Z" fill="#FF5300"/>
<path d="M385.396 119.868C385.387 120.708 385.129 121.526 384.655 122.22C384.182 122.913 383.514 123.45 382.735 123.763C381.957 124.076 381.104 124.15 380.283 123.977C379.463 123.804 378.712 123.391 378.126 122.79C377.54 122.189 377.144 121.428 376.99 120.602C376.836 119.776 376.929 118.923 377.259 118.15C377.588 117.377 378.139 116.72 378.841 116.261C379.544 115.802 380.366 115.562 381.205 115.572C382.328 115.585 383.401 116.046 384.187 116.851C384.973 117.656 385.408 118.741 385.396 119.868Z" fill="#3F3D56"/>
<path d="M397.509 120.004C397.499 120.844 397.241 121.663 396.768 122.356C396.294 123.049 395.626 123.586 394.848 123.899C394.069 124.212 393.216 124.287 392.396 124.113C391.575 123.94 390.824 123.527 390.238 122.926C389.652 122.326 389.257 121.564 389.102 120.738C388.948 119.912 389.041 119.059 389.371 118.286C389.7 117.514 390.251 116.856 390.954 116.397C391.656 115.938 392.478 115.698 393.317 115.708C394.441 115.722 395.513 116.182 396.299 116.987C397.085 117.793 397.52 118.877 397.509 120.004Z" fill="#E6E6E6"/>
<path d="M429.366 143.253H331.065V218.512H429.366V143.253Z" fill="#F2F2F2"/>
<path d="M424.481 146.993H335.95V214.773H424.481V146.993Z" fill="white"/>
<path d="M350.971 169.27C353.001 169.27 354.647 167.621 354.647 165.586C354.647 163.552 353.001 161.902 350.971 161.902C348.941 161.902 347.295 163.552 347.295 165.586C347.295 167.621 348.941 169.27 350.971 169.27Z" fill="#3F3D56"/>
<path d="M410.033 162.72C410.36 162.719 410.685 162.783 410.988 162.909C411.291 163.034 411.566 163.218 411.798 163.45C412.03 163.682 412.214 163.958 412.34 164.261C412.465 164.564 412.53 164.89 412.53 165.218C412.53 165.546 412.465 165.872 412.34 166.175C412.214 166.478 412.03 166.754 411.798 166.986C411.566 167.218 411.291 167.402 410.988 167.527C410.685 167.653 410.36 167.717 410.033 167.716H371.372C370.711 167.716 370.077 167.453 369.609 166.985C369.142 166.516 368.879 165.881 368.879 165.218C368.879 164.555 369.142 163.92 369.609 163.452C370.077 162.983 370.711 162.72 371.372 162.72H410.033ZM410.033 162.108H371.372C370.964 162.107 370.56 162.187 370.183 162.343C369.806 162.499 369.463 162.728 369.175 163.017C368.886 163.306 368.657 163.649 368.501 164.027C368.345 164.404 368.264 164.809 368.264 165.218C368.264 165.627 368.345 166.032 368.501 166.409C368.657 166.787 368.886 167.13 369.175 167.419C369.463 167.708 369.806 167.937 370.183 168.093C370.56 168.249 370.964 168.329 371.372 168.328H410.033C410.441 168.329 410.845 168.249 411.222 168.093C411.599 167.937 411.941 167.708 412.23 167.419C412.519 167.13 412.748 166.787 412.904 166.409C413.06 166.032 413.141 165.627 413.141 165.218C413.141 164.809 413.06 164.404 412.904 164.027C412.748 163.649 412.519 163.306 412.23 163.017C411.941 162.728 411.599 162.499 411.222 162.343C410.845 162.187 410.441 162.107 410.033 162.108Z" fill="#3F3D56"/>
<path d="M394.778 168.328H365.675C364.852 168.328 364.062 168 363.48 167.417C362.898 166.834 362.571 166.043 362.571 165.218C362.571 164.393 362.898 163.602 363.48 163.019C364.062 162.436 364.852 162.108 365.675 162.108H394.778C395.601 162.108 396.39 162.436 396.972 163.019C397.555 163.602 397.881 164.393 397.881 165.218C397.881 166.043 397.555 166.834 396.972 167.417C396.39 168 395.601 168.328 394.778 168.328Z" fill="#FF5300"/>
<path d="M350.971 184.567C353.001 184.567 354.647 182.917 354.647 180.883C354.647 178.848 353.001 177.199 350.971 177.199C348.941 177.199 347.295 178.848 347.295 180.883C347.295 182.917 348.941 184.567 350.971 184.567Z" fill="#3F3D56"/>
<path d="M410.033 178.016C410.36 178.016 410.685 178.08 410.988 178.205C411.291 178.33 411.566 178.514 411.798 178.746C412.03 178.978 412.214 179.254 412.339 179.557C412.465 179.861 412.53 180.186 412.53 180.514C412.53 180.843 412.465 181.168 412.339 181.471C412.214 181.775 412.03 182.05 411.798 182.282C411.566 182.514 411.291 182.698 410.988 182.824C410.685 182.949 410.36 183.013 410.033 183.013H371.372C370.711 183.013 370.077 182.749 369.609 182.281C369.142 181.812 368.879 181.177 368.879 180.514C368.879 179.852 369.142 179.216 369.609 178.748C370.077 178.279 370.711 178.016 371.372 178.016H410.033ZM410.033 177.404H371.372C370.549 177.404 369.76 177.732 369.178 178.315C368.596 178.898 368.269 179.69 368.269 180.514C368.269 181.339 368.596 182.13 369.178 182.714C369.76 183.297 370.549 183.625 371.372 183.625H410.033C410.856 183.625 411.645 183.297 412.227 182.714C412.809 182.13 413.136 181.339 413.136 180.514C413.136 179.69 412.809 178.898 412.227 178.315C411.645 177.732 410.856 177.404 410.033 177.404Z" fill="#3F3D56"/>
<path d="M405.768 183.624H365.675C364.852 183.624 364.062 183.297 363.48 182.714C362.898 182.13 362.571 181.339 362.571 180.514C362.571 179.69 362.898 178.898 363.48 178.315C364.062 177.732 364.852 177.404 365.675 177.404H405.768C406.591 177.404 407.381 177.732 407.963 178.315C408.545 178.898 408.872 179.69 408.872 180.514C408.872 181.339 408.545 182.13 407.963 182.714C407.381 183.297 406.591 183.624 405.768 183.624Z" fill="#FF5300"/>
<path d="M350.971 199.863C353.001 199.863 354.647 198.214 354.647 196.179C354.647 194.145 353.001 192.496 350.971 192.496C348.941 192.496 347.295 194.145 347.295 196.179C347.295 198.214 348.941 199.863 350.971 199.863Z" fill="#3F3D56"/>
<path d="M410.033 193.313C410.36 193.313 410.685 193.377 410.988 193.502C411.291 193.627 411.566 193.811 411.798 194.043C412.03 194.275 412.214 194.551 412.339 194.854C412.465 195.158 412.53 195.483 412.53 195.811C412.53 196.14 412.465 196.465 412.339 196.768C412.214 197.072 412.03 197.347 411.798 197.579C411.566 197.811 411.291 197.995 410.988 198.121C410.685 198.246 410.36 198.31 410.033 198.31H371.372C370.711 198.31 370.077 198.046 369.609 197.578C369.142 197.109 368.879 196.474 368.879 195.811C368.879 195.149 369.142 194.513 369.609 194.045C370.077 193.576 370.711 193.313 371.372 193.313H410.033ZM410.033 192.701H371.372C370.549 192.701 369.76 193.029 369.178 193.612C368.596 194.195 368.269 194.986 368.269 195.811C368.269 196.636 368.596 197.427 369.178 198.01C369.76 198.594 370.549 198.921 371.372 198.921H410.033C410.856 198.921 411.645 198.594 412.227 198.01C412.809 197.427 413.136 196.636 413.136 195.811C413.136 194.986 412.809 194.195 412.227 193.612C411.645 193.029 410.856 192.701 410.033 192.701Z" fill="#3F3D56"/>
<path d="M381.956 198.921H365.675C365.267 198.922 364.863 198.842 364.486 198.686C364.109 198.53 363.766 198.301 363.477 198.012C363.189 197.723 362.96 197.38 362.804 197.003C362.647 196.625 362.567 196.22 362.567 195.811C362.567 195.402 362.647 194.998 362.804 194.62C362.96 194.242 363.189 193.899 363.477 193.61C363.766 193.322 364.109 193.093 364.486 192.937C364.863 192.781 365.267 192.701 365.675 192.701H381.956C382.779 192.702 383.567 193.031 384.148 193.614C384.729 194.197 385.055 194.987 385.055 195.811C385.055 196.635 384.729 197.426 384.148 198.009C383.567 198.592 382.779 198.92 381.956 198.921Z" fill="#FF5300"/>
<path d="M309.336 69.4644H34.7031V210.515H309.336V69.4644Z" fill="#F2F2F2"/>
<path d="M300.182 76.4731H43.8574V203.506H300.182V76.4731Z" fill="white"/>
<path d="M268.392 184.126H81.5369C81.3818 184.126 81.2331 184.064 81.1234 183.954C81.0138 183.845 80.9522 183.695 80.9521 183.54V93.7887C80.9521 93.6332 81.0138 93.4842 81.1234 93.3743C81.2331 93.2644 81.3818 93.2026 81.5369 93.2026C81.692 93.2026 81.8408 93.2644 81.9504 93.3743C82.0601 93.4842 82.1217 93.6332 82.1217 93.7887V182.954H268.392C268.547 182.954 268.696 183.016 268.806 183.126C268.916 183.236 268.977 183.385 268.977 183.54C268.977 183.695 268.916 183.845 268.806 183.954C268.696 184.064 268.547 184.126 268.392 184.126Z" fill="#3F3D56"/>
<path d="M121.46 177.68H104.464C104.004 177.679 103.563 177.496 103.238 177.17C102.912 176.844 102.729 176.401 102.729 175.94V152.462C102.729 152.001 102.912 151.559 103.238 151.233C103.563 150.907 104.004 150.723 104.464 150.723H121.46C121.92 150.723 122.361 150.907 122.686 151.233C123.012 151.559 123.195 152.001 123.196 152.462V175.94C123.195 176.401 123.012 176.844 122.686 177.17C122.361 177.496 121.92 177.679 121.46 177.68Z" fill="#FF5300"/>
<path d="M152.453 177.68H135.458C134.997 177.68 134.556 177.496 134.231 177.17C133.905 176.844 133.722 176.402 133.722 175.941V130.194C133.722 129.732 133.905 129.29 134.231 128.964C134.556 128.638 134.997 128.455 135.458 128.454H152.453C152.913 128.455 153.354 128.638 153.68 128.964C154.005 129.29 154.188 129.732 154.189 130.194V175.941C154.188 176.402 154.005 176.844 153.68 177.17C153.354 177.496 152.913 177.68 152.453 177.68Z" fill="#FF5300"/>
<path d="M183.445 177.68H166.45C165.99 177.679 165.549 177.496 165.223 177.17C164.898 176.844 164.715 176.401 164.714 175.94V152.462C164.715 152.001 164.898 151.559 165.223 151.233C165.549 150.907 165.99 150.723 166.45 150.723H183.445C183.906 150.723 184.347 150.907 184.672 151.233C184.998 151.559 185.181 152.001 185.181 152.462V175.94C185.181 176.401 184.998 176.844 184.672 177.17C184.347 177.496 183.906 177.679 183.445 177.68Z" fill="#FF5300"/>
<path d="M214.439 177.68H197.443C196.994 177.689 196.558 177.52 196.233 177.209C195.908 176.898 195.719 176.47 195.708 176.019V121.324C195.719 120.873 195.908 120.446 196.233 120.134C196.558 119.823 196.994 119.654 197.443 119.663H214.439C214.888 119.654 215.324 119.823 215.649 120.134C215.974 120.446 216.163 120.873 216.175 121.324V176.019C216.163 176.47 215.974 176.898 215.649 177.209C215.324 177.52 214.888 177.689 214.439 177.68Z" fill="#FF5300"/>
<path d="M245.431 177.68H228.436C227.976 177.679 227.535 177.496 227.209 177.17C226.884 176.844 226.701 176.401 226.7 175.94V105.58C226.701 105.119 226.884 104.677 227.209 104.351C227.535 104.025 227.976 103.841 228.436 103.841H245.431C245.892 103.841 246.333 104.025 246.658 104.351C246.984 104.677 247.167 105.119 247.167 105.58V175.94C247.167 176.401 246.984 176.844 246.658 177.17C246.333 177.496 245.892 177.679 245.431 177.68Z" fill="#FF5300"/>
<path d="M112.962 143.69C114.9 143.69 116.471 142.116 116.471 140.174C116.471 138.232 114.9 136.658 112.962 136.658C111.024 136.658 109.454 138.232 109.454 140.174C109.454 142.116 111.024 143.69 112.962 143.69Z" fill="#3F3D56"/>
<path d="M143.955 120.836C145.893 120.836 147.464 119.261 147.464 117.319C147.464 115.377 145.893 113.803 143.955 113.803C142.017 113.803 140.446 115.377 140.446 117.319C140.446 119.261 142.017 120.836 143.955 120.836Z" fill="#3F3D56"/>
<path d="M174.948 143.69C176.886 143.69 178.457 142.116 178.457 140.174C178.457 138.232 176.886 136.658 174.948 136.658C173.01 136.658 171.439 138.232 171.439 140.174C171.439 142.116 173.01 143.69 174.948 143.69Z" fill="#3F3D56"/>
<path d="M205.941 109.701C207.879 109.701 209.449 108.127 209.449 106.185C209.449 104.243 207.879 102.669 205.941 102.669C204.003 102.669 202.432 104.243 202.432 106.185C202.432 108.127 204.003 109.701 205.941 109.701Z" fill="#3F3D56"/>
<path d="M236.934 96.8086C238.872 96.8086 240.443 95.2344 240.443 93.2925C240.443 91.3506 238.872 89.7764 236.934 89.7764C234.996 89.7764 233.425 91.3506 233.425 93.2925C233.425 95.2344 234.996 96.8086 236.934 96.8086Z" fill="#3F3D56"/>
<path d="M175.022 140.962L143.955 117.643L113.313 140.643L112.612 139.706L143.955 116.178L174.874 139.386L205.599 105.692L205.722 105.641L236.715 93.1274L237.153 94.2145L206.283 106.679L175.022 140.962Z" fill="#3F3D56"/>
<path d="M638.322 429.5H380.023C379.843 429.5 379.671 429.428 379.544 429.301C379.417 429.173 379.345 429.001 379.345 428.821C379.345 428.64 379.417 428.467 379.544 428.34C379.671 428.213 379.843 428.141 380.023 428.141H638.322C638.502 428.141 638.674 428.213 638.801 428.34C638.929 428.467 639 428.64 639 428.821C639 429.001 638.929 429.173 638.801 429.301C638.674 429.428 638.502 429.5 638.322 429.5Z" fill="#CCCCCC"/>
</g>
<defs>
<clipPath id="clip0_2_3001">
<rect width="639" height="429" fill="white" transform="translate(0 0.5)"/>
</clipPath>
</defs>
</svg>
