<svg width="684" height="353" viewBox="0 0 684 353" fill="none" xmlns="http://www.w3.org/2000/svg">
<g clip-path="url(#clip0_2_3075)">
<path d="M213.858 44.2435C216.583 44.2435 218.791 42.0389 218.791 39.3193C218.791 36.5997 216.583 34.395 213.858 34.395C211.134 34.395 208.925 36.5997 208.925 39.3193C208.925 42.0389 211.134 44.2435 213.858 44.2435Z" fill="#F2F2F2"/>
<path d="M194.198 44.2435C196.923 44.2435 199.131 42.0389 199.131 39.3193C199.131 36.5997 196.923 34.395 194.198 34.395C191.474 34.395 189.265 36.5997 189.265 39.3193C189.265 42.0389 191.474 44.2435 194.198 44.2435Z" fill="#F2F2F2"/>
<path d="M174.538 44.2435C177.262 44.2435 179.471 42.0389 179.471 39.3193C179.471 36.5997 177.262 34.395 174.538 34.395C171.813 34.395 169.604 36.5997 169.604 39.3193C169.604 42.0389 171.813 44.2435 174.538 44.2435Z" fill="#F2F2F2"/>
<path d="M154.877 44.2435C157.602 44.2435 159.81 42.0389 159.81 39.3193C159.81 36.5997 157.602 34.395 154.877 34.395C152.153 34.395 149.944 36.5997 149.944 39.3193C149.944 42.0389 152.153 44.2435 154.877 44.2435Z" fill="#F2F2F2"/>
<path d="M213.858 64.8026C216.583 64.8026 218.791 62.598 218.791 59.8784C218.791 57.1588 216.583 54.9541 213.858 54.9541C211.134 54.9541 208.925 57.1588 208.925 59.8784C208.925 62.598 211.134 64.8026 213.858 64.8026Z" fill="#F2F2F2"/>
<path d="M194.198 64.8026C196.923 64.8026 199.131 62.598 199.131 59.8784C199.131 57.1588 196.923 54.9541 194.198 54.9541C191.474 54.9541 189.265 57.1588 189.265 59.8784C189.265 62.598 191.474 64.8026 194.198 64.8026Z" fill="#F2F2F2"/>
<path d="M174.538 64.8026C177.262 64.8026 179.471 62.598 179.471 59.8784C179.471 57.1588 177.262 54.9541 174.538 54.9541C171.813 54.9541 169.604 57.1588 169.604 59.8784C169.604 62.598 171.813 64.8026 174.538 64.8026Z" fill="#F2F2F2"/>
<path d="M154.877 64.8026C157.602 64.8026 159.81 62.598 159.81 59.8784C159.81 57.1588 157.602 54.9541 154.877 54.9541C152.153 54.9541 149.944 57.1588 149.944 59.8784C149.944 62.598 152.153 64.8026 154.877 64.8026Z" fill="#F2F2F2"/>
<path d="M213.858 85.3622C216.583 85.3622 218.791 83.1575 218.791 80.4379C218.791 77.7183 216.583 75.5137 213.858 75.5137C211.134 75.5137 208.925 77.7183 208.925 80.4379C208.925 83.1575 211.134 85.3622 213.858 85.3622Z" fill="#F2F2F2"/>
<path d="M194.198 85.3622C196.923 85.3622 199.131 83.1575 199.131 80.4379C199.131 77.7183 196.923 75.5137 194.198 75.5137C191.474 75.5137 189.265 77.7183 189.265 80.4379C189.265 83.1575 191.474 85.3622 194.198 85.3622Z" fill="#F2F2F2"/>
<path d="M174.538 85.3622C177.262 85.3622 179.471 83.1575 179.471 80.4379C179.471 77.7183 177.262 75.5137 174.538 75.5137C171.813 75.5137 169.604 77.7183 169.604 80.4379C169.604 83.1575 171.813 85.3622 174.538 85.3622Z" fill="#F2F2F2"/>
<path d="M154.877 85.3622C157.602 85.3622 159.81 83.1575 159.81 80.4379C159.81 77.7183 157.602 75.5137 154.877 75.5137C152.153 75.5137 149.944 77.7183 149.944 80.4379C149.944 83.1575 152.153 85.3622 154.877 85.3622Z" fill="#F2F2F2"/>
<path d="M213.858 105.922C216.583 105.922 218.791 103.717 218.791 100.997C218.791 98.2779 216.583 96.0732 213.858 96.0732C211.134 96.0732 208.925 98.2779 208.925 100.997C208.925 103.717 211.134 105.922 213.858 105.922Z" fill="#F2F2F2"/>
<path d="M194.198 105.922C196.923 105.922 199.131 103.717 199.131 100.997C199.131 98.2779 196.923 96.0732 194.198 96.0732C191.474 96.0732 189.265 98.2779 189.265 100.997C189.265 103.717 191.474 105.922 194.198 105.922Z" fill="#F2F2F2"/>
<path d="M174.538 105.922C177.262 105.922 179.471 103.717 179.471 100.997C179.471 98.2779 177.262 96.0732 174.538 96.0732C171.813 96.0732 169.604 98.2779 169.604 100.997C169.604 103.717 171.813 105.922 174.538 105.922Z" fill="#F2F2F2"/>
<path d="M154.877 105.922C157.602 105.922 159.81 103.717 159.81 100.997C159.81 98.2779 157.602 96.0732 154.877 96.0732C152.153 96.0732 149.944 98.2779 149.944 100.997C149.944 103.717 152.153 105.922 154.877 105.922Z" fill="#F2F2F2"/>
<path d="M213.858 126.481C216.583 126.481 218.791 124.276 218.791 121.557C218.791 118.837 216.583 116.632 213.858 116.632C211.134 116.632 208.925 118.837 208.925 121.557C208.925 124.276 211.134 126.481 213.858 126.481Z" fill="#F2F2F2"/>
<path d="M194.198 126.481C196.923 126.481 199.131 124.276 199.131 121.557C199.131 118.837 196.923 116.632 194.198 116.632C191.474 116.632 189.265 118.837 189.265 121.557C189.265 124.276 191.474 126.481 194.198 126.481Z" fill="#F2F2F2"/>
<path d="M174.538 126.481C177.262 126.481 179.471 124.276 179.471 121.557C179.471 118.837 177.262 116.632 174.538 116.632C171.813 116.632 169.604 118.837 169.604 121.557C169.604 124.276 171.813 126.481 174.538 126.481Z" fill="#F2F2F2"/>
<path d="M154.877 126.481C157.602 126.481 159.81 124.276 159.81 121.557C159.81 118.837 157.602 116.632 154.877 116.632C152.153 116.632 149.944 118.837 149.944 121.557C149.944 124.276 152.153 126.481 154.877 126.481Z" fill="#F2F2F2"/>
<path d="M213.858 147.04C216.583 147.04 218.791 144.836 218.791 142.116C218.791 139.397 216.583 137.192 213.858 137.192C211.134 137.192 208.925 139.397 208.925 142.116C208.925 144.836 211.134 147.04 213.858 147.04Z" fill="#F2F2F2"/>
<path d="M194.198 147.04C196.923 147.04 199.131 144.836 199.131 142.116C199.131 139.397 196.923 137.192 194.198 137.192C191.474 137.192 189.265 139.397 189.265 142.116C189.265 144.836 191.474 147.04 194.198 147.04Z" fill="#F2F2F2"/>
<path d="M174.538 147.04C177.262 147.04 179.471 144.836 179.471 142.116C179.471 139.397 177.262 137.192 174.538 137.192C171.813 137.192 169.604 139.397 169.604 142.116C169.604 144.836 171.813 147.04 174.538 147.04Z" fill="#F2F2F2"/>
<path d="M154.877 147.04C157.602 147.04 159.81 144.836 159.81 142.116C159.81 139.397 157.602 137.192 154.877 137.192C152.153 137.192 149.944 139.397 149.944 142.116C149.944 144.836 152.153 147.04 154.877 147.04Z" fill="#F2F2F2"/>
<path d="M170.511 276.452V277.975C170.513 280.498 171.519 282.918 173.306 284.703C175.094 286.487 177.518 287.491 180.046 287.493H248.7C251.229 287.492 253.653 286.489 255.441 284.704C257.229 282.919 258.234 280.499 258.235 277.975V276.452C258.24 274.224 257.456 272.067 256.023 270.36C255.546 269.793 255.006 269.283 254.413 268.837C254.413 268.837 216.669 267.984 216.669 266.934H180.046C177.519 266.937 175.095 267.941 173.308 269.725C171.52 271.51 170.515 273.928 170.511 276.452Z" fill="#CCCCCC"/>
<path d="M219.883 287.115H209.967V351.077H219.883V287.115Z" fill="#CCCCCC"/>
<path d="M248.108 350.729C248.108 351.799 233.081 351.143 214.544 351.143C196.007 351.143 180.98 351.799 180.98 350.729C180.98 349.66 196.007 341.178 214.544 341.178C233.081 341.178 248.108 349.66 248.108 350.729Z" fill="#CCCCCC"/>
<path d="M234.474 275.16C235.19 274.201 235.686 273.097 235.929 271.926C236.171 270.755 236.153 269.545 235.876 268.381C235.599 267.218 235.07 266.129 234.326 265.192C233.582 264.255 232.641 263.491 231.57 262.956L210.552 191.467L194.547 199.291L220.24 267.103C219.459 268.959 219.387 271.037 220.038 272.943C220.688 274.848 222.017 276.449 223.772 277.443C225.526 278.436 227.585 278.752 229.557 278.331C231.53 277.91 233.279 276.782 234.474 275.16L234.474 275.16Z" fill="#A0616A"/>
<path d="M215.313 203.406L197.4 208.246C196.891 208.384 196.357 208.41 195.836 208.324C195.316 208.237 194.82 208.039 194.382 207.744C193.945 207.449 193.576 207.063 193.302 206.613C193.027 206.163 192.853 205.659 192.791 205.135L190.626 186.794C189.935 184.187 190.308 181.413 191.663 179.08C193.018 176.747 195.244 175.045 197.854 174.348C200.463 173.651 203.243 174.016 205.584 175.361C207.925 176.707 209.636 178.925 210.341 181.528L217.721 198.399C217.932 198.882 218.036 199.405 218.027 199.932C218.017 200.459 217.894 200.977 217.666 201.453C217.437 201.928 217.109 202.348 216.703 202.685C216.297 203.022 215.823 203.268 215.313 203.406H215.313Z" fill="#FF5300"/>
<path d="M239.156 343.233L248.508 343.232L252.957 319.021H239.154L239.156 343.233Z" fill="#A0616A"/>
<path d="M236.77 340.184L255.187 340.184H255.188C256.729 340.184 258.256 340.487 259.68 341.075C261.104 341.664 262.398 342.527 263.488 343.615C264.577 344.703 265.442 345.994 266.032 347.416C266.622 348.837 266.925 350.361 266.925 351.9V352.28L236.771 352.281L236.77 340.184Z" fill="#2F2E41"/>
<path d="M250.011 330.249C249.902 330.249 249.792 330.244 249.683 330.233L236.74 329.293C236.217 329.244 235.711 329.076 235.263 328.802C234.815 328.528 234.436 328.155 234.155 327.711C233.875 327.268 233.7 326.765 233.644 326.244C233.588 325.722 233.653 325.194 233.834 324.702L251.155 285.856C251.279 285.51 251.33 285.142 251.304 284.775C251.278 284.408 251.177 284.051 251.006 283.725C250.835 283.396 250.597 283.106 250.306 282.875C250.015 282.644 249.679 282.477 249.319 282.385C241.174 280.26 220.277 274.601 202.187 267.98C194.437 265.143 189.556 261.043 187.679 255.795C185.205 248.876 188.865 242.565 189.022 242.301L189.145 242.093L206.167 243.638L224.62 245.205L265.06 266.851C268.448 268.68 271.022 271.716 272.269 275.355C273.516 278.993 273.344 282.967 271.787 286.485L253.143 328.218C252.873 328.823 252.434 329.336 251.878 329.696C251.322 330.057 250.674 330.249 250.011 330.249Z" fill="#2F2E41"/>
<path d="M209.127 166.785C219.474 166.785 227.862 158.411 227.862 148.083C227.862 137.754 219.474 129.38 209.127 129.38C198.779 129.38 190.391 137.754 190.391 148.083C190.391 158.411 198.779 166.785 209.127 166.785Z" fill="#A0616A"/>
<path d="M233.816 342.471L243.168 342.47L247.618 318.259H233.814L233.816 342.471Z" fill="#A0616A"/>
<path d="M231.43 339.423L249.848 339.422H249.848C251.39 339.422 252.916 339.725 254.34 340.314C255.764 340.903 257.058 341.766 258.148 342.854C259.238 343.942 260.102 345.233 260.692 346.655C261.282 348.076 261.585 349.6 261.585 351.138V351.519L231.431 351.52L231.43 339.423Z" fill="#2F2E41"/>
<path d="M244.671 332.533C244.562 332.533 244.453 332.528 244.343 332.518L231.4 331.577C230.877 331.529 230.372 331.361 229.923 331.086C229.475 330.812 229.096 330.439 228.815 329.995C228.535 329.552 228.36 329.05 228.304 328.528C228.248 328.006 228.314 327.479 228.494 326.986L245.815 288.14C245.939 287.794 245.99 287.426 245.964 287.059C245.938 286.692 245.837 286.335 245.666 286.009C245.495 285.68 245.257 285.39 244.966 285.159C244.675 284.928 244.339 284.761 243.979 284.669C235.834 282.544 214.937 276.885 196.847 270.264C189.097 267.427 184.216 263.328 182.339 258.079C179.865 251.16 183.525 244.85 183.682 244.585L183.805 244.377L200.827 245.922L219.281 247.489L259.72 269.135C263.109 270.964 265.683 274.001 266.929 277.639C268.176 281.278 268.004 285.251 266.447 288.769L247.803 330.502C247.533 331.107 247.094 331.62 246.538 331.981C245.982 332.341 245.334 332.533 244.671 332.533Z" fill="#2F2E41"/>
<path d="M214.905 177.39L195.072 170.537C195.072 170.537 182.621 180.085 188.602 203.773C191.725 215.997 190.815 228.9 186.008 240.567C185.43 242.01 184.763 243.417 184.011 244.779C184.011 244.779 206.132 271.43 226.729 251.632L218.719 213.178C218.719 213.178 231.305 187.669 214.905 177.39Z" fill="#2F2E41"/>
<path d="M211.453 167.421C208.786 163.437 206.682 157.912 209.618 154.121C212.516 150.379 218.232 150.931 222.67 149.275C228.852 146.969 232.437 139.719 231.319 133.227C230.201 126.734 224.98 121.352 218.76 119.15C212.54 116.948 205.526 117.664 199.435 120.2C191.937 123.322 185.505 129.361 182.808 137.01C180.111 144.66 181.553 153.844 187.148 159.724C193.147 166.028 202.561 167.708 211.271 167.606" fill="#2F2E41"/>
<path d="M194.025 133.435C190.665 136.165 185.538 134.952 181.931 132.556C178.324 130.16 175.398 126.747 171.495 124.869C164.615 121.556 156.297 123.758 149.601 127.427C142.905 131.096 136.969 136.165 129.896 139.044C122.823 141.923 113.798 142.066 108.442 136.629C107.124 140.441 107.017 144.566 108.134 148.441C109.251 152.316 111.539 155.752 114.685 158.282C117.831 160.811 121.682 162.31 125.713 162.574C129.744 162.837 133.758 161.853 137.208 159.756C144.958 155.043 149.239 145.163 157.931 142.562C162.741 141.123 167.906 142.282 172.767 143.538C177.628 144.793 182.697 146.15 187.603 145.081C192.509 144.012 197.098 139.612 196.474 134.638L194.025 133.435Z" fill="#2F2E41"/>
<path d="M255.015 309.657C253.031 296.794 253.031 283.704 255.015 270.841C255.141 270.076 255.535 269.38 256.127 268.877C256.719 268.374 257.47 268.097 258.247 268.096H288.663C289.156 268.094 289.642 268.205 290.086 268.419C290.529 268.634 290.918 268.947 291.222 269.334C291.533 269.726 291.75 270.185 291.857 270.673C291.964 271.162 291.957 271.669 291.838 272.155C288.993 284.05 288.993 296.448 291.838 308.343C291.957 308.829 291.964 309.336 291.857 309.825C291.75 310.314 291.533 310.772 291.222 311.164C290.918 311.551 290.529 311.864 290.086 312.079C289.642 312.293 289.156 312.404 288.663 312.402H258.247C257.47 312.401 256.719 312.124 256.127 311.621C255.535 311.118 255.141 310.422 255.015 309.657Z" fill="#FF5300"/>
<path d="M279.303 286.885H263.342C262.735 286.885 262.153 286.644 261.724 286.216C261.295 285.787 261.054 285.207 261.053 284.601V283.709C261.054 283.103 261.295 282.522 261.724 282.094C262.153 281.666 262.735 281.425 263.342 281.424H279.303C279.909 281.425 280.491 281.666 280.92 282.094C281.349 282.522 281.59 283.103 281.591 283.709V284.601C281.59 285.207 281.349 285.787 280.92 286.216C280.491 286.644 279.909 286.885 279.303 286.885Z" fill="white"/>
<path d="M279.303 296.286H263.342C262.735 296.285 262.153 296.044 261.724 295.616C261.295 295.188 261.054 294.607 261.053 294.001V293.109C261.054 292.503 261.295 291.922 261.724 291.494C262.153 291.066 262.735 290.825 263.342 290.824H279.303C279.909 290.825 280.491 291.066 280.92 291.494C281.349 291.922 281.59 292.503 281.591 293.109V294.001C281.59 294.607 281.349 295.188 280.92 295.616C280.491 296.044 279.909 296.285 279.303 296.286Z" fill="white"/>
<path d="M263.013 271.734C263.467 270.627 263.671 269.434 263.613 268.24C263.554 267.046 263.234 265.878 262.675 264.821C262.115 263.763 261.33 262.841 260.375 262.119C259.42 261.397 258.318 260.893 257.147 260.642L218.903 196.661L205.364 208.229L247.214 267.482C246.922 269.475 247.373 271.505 248.48 273.187C249.587 274.87 251.274 276.089 253.222 276.613C255.169 277.137 257.242 276.93 259.046 276.031C260.851 275.132 262.263 273.603 263.013 271.734L263.013 271.734Z" fill="#A0616A"/>
<path d="M226.502 207.034L210.368 216.188C209.909 216.449 209.399 216.607 208.873 216.653C208.347 216.699 207.817 216.632 207.32 216.455C206.823 216.278 206.369 215.996 205.991 215.629C205.612 215.262 205.317 214.817 205.127 214.325L198.439 197.106C197.118 194.754 196.785 191.975 197.513 189.378C198.241 186.781 199.971 184.578 202.323 183.253C204.675 181.927 207.458 181.586 210.062 182.306C212.665 183.025 214.877 184.746 216.212 187.09L227.58 201.585C227.905 202 228.137 202.481 228.26 202.993C228.382 203.506 228.393 204.039 228.29 204.556C228.188 205.073 227.975 205.562 227.667 205.99C227.358 206.417 226.961 206.774 226.502 207.034Z" fill="#2F2E41"/>
<path d="M398.166 229.508H88.4617C87.1467 229.508 85.8855 230.029 84.9557 230.957C84.0258 231.886 83.5034 233.145 83.5034 234.457C83.5034 235.77 84.0258 237.029 84.9557 237.957C85.8855 238.885 87.1467 239.407 88.4617 239.407H97.2341V347.153C97.2341 348.466 97.7565 349.725 98.6864 350.653C99.6163 351.581 100.877 352.102 102.192 352.102C103.507 352.102 104.769 351.581 105.699 350.653C106.628 349.725 107.151 348.466 107.151 347.153V248.917L162.738 349.489C163.397 350.623 164.48 351.45 165.749 351.788C167.018 352.126 168.369 351.948 169.506 351.292C170.644 350.637 171.474 349.557 171.815 348.292C172.156 347.026 171.981 345.676 171.326 344.54L113.218 239.407H378.714V239.471L320.641 344.54C319.984 345.676 319.806 347.027 320.146 348.295C320.486 349.563 321.317 350.644 322.456 351.3C323.595 351.957 324.948 352.135 326.218 351.795C327.489 351.455 328.572 350.626 329.229 349.489L378.714 259.958V347.153C378.714 348.466 379.236 349.725 380.166 350.653C381.096 351.581 382.357 352.102 383.672 352.102C384.987 352.102 386.249 351.581 387.178 350.653C388.108 349.725 388.631 348.466 388.631 347.153V242.017L390.073 239.407H398.166C399.481 239.407 400.742 238.885 401.672 237.957C402.602 237.029 403.124 235.77 403.124 234.457C403.124 233.145 402.602 231.886 401.672 230.957C400.742 230.029 399.481 229.508 398.166 229.508Z" fill="#3F3D56"/>
<path d="M270.013 226.462H209.75C208.275 226.462 207.08 227.655 207.08 229.127C207.08 230.599 208.275 231.792 209.75 231.792H270.013C271.487 231.792 272.682 230.599 272.682 229.127C272.682 227.655 271.487 226.462 270.013 226.462Z" fill="#CCCCCC"/>
<path d="M310.442 231.792H242.551C241.237 231.791 239.976 231.269 239.047 230.341C238.117 229.413 237.594 228.155 237.593 226.843V189.531C237.594 188.219 238.117 186.961 239.047 186.033C239.976 185.105 241.237 184.584 242.551 184.582H310.442C311.756 184.584 313.017 185.105 313.946 186.033C314.876 186.961 315.399 188.219 315.4 189.531V226.843C315.399 228.155 314.876 229.413 313.946 230.341C313.017 231.269 311.756 231.791 310.442 231.792Z" fill="#CCCCCC"/>
<path d="M276.496 212.756C279.024 212.756 281.073 210.71 281.073 208.187C281.073 205.664 279.024 203.618 276.496 203.618C273.969 203.618 271.919 205.664 271.919 208.187C271.919 210.71 273.969 212.756 276.496 212.756Z" fill="white"/>
<path d="M362.253 139.863V6.22724C362.255 4.70881 362.86 3.25307 363.935 2.17937C365.011 1.10568 366.469 0.501727 367.99 0.5H473.815C475.336 0.501727 476.795 1.10568 477.87 2.17937C478.946 3.25307 479.551 4.70881 479.553 6.22724V139.863C479.551 141.381 478.946 142.837 477.87 143.911C476.795 144.985 475.336 145.588 473.815 145.59H367.99C366.469 145.588 365.011 144.985 363.935 143.911C362.86 142.837 362.255 141.381 362.253 139.863ZM367.99 1.77272C366.807 1.77405 365.673 2.24379 364.836 3.07889C364 3.91399 363.529 5.04623 363.528 6.22724V139.863C363.529 141.044 364 142.176 364.836 143.011C365.673 143.846 366.807 144.316 367.99 144.317H473.815C474.998 144.316 476.132 143.846 476.969 143.011C477.806 142.176 478.276 141.044 478.278 139.863V6.22724C478.276 5.04623 477.806 3.91399 476.969 3.07889C476.132 2.24379 474.998 1.77405 473.815 1.77272H367.99Z" fill="#E6E6E6"/>
<path d="M426.837 61.8716V34.432C426.838 33.6728 427.14 32.9449 427.678 32.408C428.216 31.8712 428.945 31.5692 429.706 31.5684H453C453.76 31.5692 454.49 31.8712 455.027 32.408C455.565 32.9449 455.868 33.6728 455.869 34.432V61.8716C455.868 62.6308 455.565 63.3587 455.027 63.8956C454.49 64.4324 453.76 64.7344 453 64.7352H429.706C428.945 64.7344 428.216 64.4324 427.678 63.8956C427.14 63.3587 426.838 62.6308 426.837 61.8716Z" fill="#FF5300"/>
<path d="M381.575 74.5987V47.1591C381.576 46.3998 381.878 45.6719 382.416 45.1351C382.954 44.5982 383.683 44.2963 384.443 44.2954H407.738C408.498 44.2963 409.227 44.5982 409.765 45.1351C410.303 45.6719 410.606 46.3998 410.606 47.1591V74.5987C410.606 75.3579 410.303 76.0858 409.765 76.6226C409.227 77.1595 408.498 77.4615 407.738 77.4623H384.443C383.683 77.4615 382.954 77.1595 382.416 76.6226C381.878 76.0858 381.576 75.3579 381.575 74.5987Z" fill="#CCCCCC"/>
<path d="M417.912 113.417V85.9774C417.913 85.2182 418.215 84.4903 418.753 83.9534C419.291 83.4166 420.02 83.1146 420.781 83.1138H444.075C444.836 83.1146 445.565 83.4166 446.103 83.9534C446.64 84.4903 446.943 85.2182 446.944 85.9774V113.417C446.943 114.176 446.64 114.904 446.103 115.441C445.565 115.978 444.836 116.28 444.075 116.281H420.781C420.02 116.28 419.291 115.978 418.753 115.441C418.215 114.904 417.913 114.176 417.912 113.417Z" fill="#FF6584"/>
<path d="M595.563 14.4247C598.288 14.4247 600.496 12.22 600.496 9.50043C600.496 6.78084 598.288 4.57617 595.563 4.57617C592.839 4.57617 590.63 6.78084 590.63 9.50043C590.63 12.22 592.839 14.4247 595.563 14.4247Z" fill="#F2F2F2"/>
<path d="M595.563 34.0502C598.288 34.0502 600.496 31.8455 600.496 29.1259C600.496 26.4063 598.288 24.2017 595.563 24.2017C592.839 24.2017 590.63 26.4063 590.63 29.1259C590.63 31.8455 592.839 34.0502 595.563 34.0502Z" fill="#F2F2F2"/>
<path d="M595.563 53.6752C598.288 53.6752 600.496 51.4705 600.496 48.7509C600.496 46.0313 598.288 43.8267 595.563 43.8267C592.839 43.8267 590.63 46.0313 590.63 48.7509C590.63 51.4705 592.839 53.6752 595.563 53.6752Z" fill="#F2F2F2"/>
<path d="M595.563 73.3007C598.288 73.3007 600.496 71.096 600.496 68.3764C600.496 65.6568 598.288 63.4521 595.563 63.4521C592.839 63.4521 590.63 65.6568 590.63 68.3764C590.63 71.096 592.839 73.3007 595.563 73.3007Z" fill="#F2F2F2"/>
<path d="M574.967 14.4247C577.692 14.4247 579.9 12.22 579.9 9.50043C579.9 6.78084 577.692 4.57617 574.967 4.57617C572.243 4.57617 570.034 6.78084 570.034 9.50043C570.034 12.22 572.243 14.4247 574.967 14.4247Z" fill="#F2F2F2"/>
<path d="M574.967 34.0502C577.692 34.0502 579.9 31.8455 579.9 29.1259C579.9 26.4063 577.692 24.2017 574.967 24.2017C572.243 24.2017 570.034 26.4063 570.034 29.1259C570.034 31.8455 572.243 34.0502 574.967 34.0502Z" fill="#F2F2F2"/>
<path d="M574.967 53.6752C577.692 53.6752 579.9 51.4705 579.9 48.7509C579.9 46.0313 577.692 43.8267 574.967 43.8267C572.243 43.8267 570.034 46.0313 570.034 48.7509C570.034 51.4705 572.243 53.6752 574.967 53.6752Z" fill="#F2F2F2"/>
<path d="M574.967 73.3007C577.692 73.3007 579.9 71.096 579.9 68.3764C579.9 65.6568 577.692 63.4521 574.967 63.4521C572.243 63.4521 570.034 65.6568 570.034 68.3764C570.034 71.096 572.243 73.3007 574.967 73.3007Z" fill="#F2F2F2"/>
<path d="M554.371 14.4247C557.096 14.4247 559.304 12.22 559.304 9.50043C559.304 6.78084 557.096 4.57617 554.371 4.57617C551.647 4.57617 549.438 6.78084 549.438 9.50043C549.438 12.22 551.647 14.4247 554.371 14.4247Z" fill="#F2F2F2"/>
<path d="M554.371 34.0502C557.096 34.0502 559.304 31.8455 559.304 29.1259C559.304 26.4063 557.096 24.2017 554.371 24.2017C551.647 24.2017 549.438 26.4063 549.438 29.1259C549.438 31.8455 551.647 34.0502 554.371 34.0502Z" fill="#F2F2F2"/>
<path d="M554.371 53.6752C557.096 53.6752 559.304 51.4705 559.304 48.7509C559.304 46.0313 557.096 43.8267 554.371 43.8267C551.647 43.8267 549.438 46.0313 549.438 48.7509C549.438 51.4705 551.647 53.6752 554.371 53.6752Z" fill="#F2F2F2"/>
<path d="M554.371 73.3007C557.096 73.3007 559.304 71.096 559.304 68.3764C559.304 65.6568 557.096 63.4521 554.371 63.4521C551.647 63.4521 549.438 65.6568 549.438 68.3764C549.438 71.096 551.647 73.3007 554.371 73.3007Z" fill="#F2F2F2"/>
<path d="M533.775 14.4247C536.499 14.4247 538.708 12.22 538.708 9.50043C538.708 6.78084 536.499 4.57617 533.775 4.57617C531.05 4.57617 528.842 6.78084 528.842 9.50043C528.842 12.22 531.05 14.4247 533.775 14.4247Z" fill="#F2F2F2"/>
<path d="M533.775 34.0502C536.499 34.0502 538.708 31.8455 538.708 29.1259C538.708 26.4063 536.499 24.2017 533.775 24.2017C531.05 24.2017 528.842 26.4063 528.842 29.1259C528.842 31.8455 531.05 34.0502 533.775 34.0502Z" fill="#F2F2F2"/>
<path d="M533.775 53.6752C536.499 53.6752 538.708 51.4705 538.708 48.7509C538.708 46.0313 536.499 43.8267 533.775 43.8267C531.05 43.8267 528.842 46.0313 528.842 48.7509C528.842 51.4705 531.05 53.6752 533.775 53.6752Z" fill="#F2F2F2"/>
<path d="M533.775 73.3007C536.499 73.3007 538.708 71.096 538.708 68.3764C538.708 65.6568 536.499 63.4521 533.775 63.4521C531.05 63.4521 528.842 65.6568 528.842 68.3764C528.842 71.096 531.05 73.3007 533.775 73.3007Z" fill="#F2F2F2"/>
<path d="M513.179 14.4247C515.904 14.4247 518.112 12.22 518.112 9.50043C518.112 6.78084 515.904 4.57617 513.179 4.57617C510.455 4.57617 508.246 6.78084 508.246 9.50043C508.246 12.22 510.455 14.4247 513.179 14.4247Z" fill="#F2F2F2"/>
<path d="M513.179 34.0502C515.904 34.0502 518.112 31.8455 518.112 29.1259C518.112 26.4063 515.904 24.2017 513.179 24.2017C510.455 24.2017 508.246 26.4063 508.246 29.1259C508.246 31.8455 510.455 34.0502 513.179 34.0502Z" fill="#F2F2F2"/>
<path d="M513.179 53.6752C515.904 53.6752 518.112 51.4705 518.112 48.7509C518.112 46.0313 515.904 43.8267 513.179 43.8267C510.455 43.8267 508.246 46.0313 508.246 48.7509C508.246 51.4705 510.455 53.6752 513.179 53.6752Z" fill="#F2F2F2"/>
<path d="M513.179 73.3007C515.904 73.3007 518.112 71.096 518.112 68.3764C518.112 65.6568 515.904 63.4521 513.179 63.4521C510.455 63.4521 508.246 65.6568 508.246 68.3764C508.246 71.096 510.455 73.3007 513.179 73.3007Z" fill="#F2F2F2"/>
<path d="M492.583 14.4247C495.307 14.4247 497.516 12.22 497.516 9.50043C497.516 6.78084 495.307 4.57617 492.583 4.57617C489.858 4.57617 487.65 6.78084 487.65 9.50043C487.65 12.22 489.858 14.4247 492.583 14.4247Z" fill="#F2F2F2"/>
<path d="M492.583 34.0502C495.307 34.0502 497.516 31.8455 497.516 29.1259C497.516 26.4063 495.307 24.2017 492.583 24.2017C489.858 24.2017 487.65 26.4063 487.65 29.1259C487.65 31.8455 489.858 34.0502 492.583 34.0502Z" fill="#F2F2F2"/>
<path d="M492.583 53.6752C495.307 53.6752 497.516 51.4705 497.516 48.7509C497.516 46.0313 495.307 43.8267 492.583 43.8267C489.858 43.8267 487.65 46.0313 487.65 48.7509C487.65 51.4705 489.858 53.6752 492.583 53.6752Z" fill="#F2F2F2"/>
<path d="M492.583 73.3007C495.307 73.3007 497.516 71.096 497.516 68.3764C497.516 65.6568 495.307 63.4521 492.583 63.4521C489.858 63.4521 487.65 65.6568 487.65 68.3764C487.65 71.096 489.858 73.3007 492.583 73.3007Z" fill="#F2F2F2"/>
<path d="M512.457 184.204C512.052 183.095 511.887 181.913 511.972 180.735C512.057 179.558 512.39 178.412 512.949 177.372C513.508 176.332 514.282 175.422 515.218 174.702C516.154 173.981 517.233 173.466 518.382 173.19C518.747 173.104 519.117 173.044 519.489 173.01L538.028 140.573L533.347 132.545L544.999 123.572L553.914 135.932C554.977 137.418 555.532 139.206 555.496 141.031C555.46 142.857 554.836 144.622 553.715 146.066L528.264 178.59C528.357 178.849 528.436 179.112 528.501 179.378C528.777 180.526 528.807 181.719 528.589 182.879C528.371 184.039 527.91 185.14 527.236 186.11C526.561 187.08 525.69 187.897 524.677 188.507C523.665 189.117 522.535 189.506 521.361 189.65C521.021 189.693 520.677 189.715 520.334 189.714C518.614 189.709 516.938 189.178 515.529 188.193C514.121 187.207 513.049 185.815 512.457 184.204Z" fill="#FFB8B8"/>
<path d="M476.288 343.832L466.936 343.831L462.487 307.823L476.29 307.824L476.288 343.832Z" fill="#FFB8B8"/>
<path d="M460.256 341.164H478.292V352.499H448.9C448.9 351.011 449.194 349.537 449.765 348.161C450.335 346.786 451.172 345.536 452.226 344.484C453.281 343.431 454.533 342.596 455.911 342.026C457.288 341.457 458.765 341.164 460.256 341.164Z" fill="#2F2E41"/>
<path d="M553.333 343.832L543.98 343.831L539.532 307.823L553.334 307.824L553.333 343.832Z" fill="#FFB8B8"/>
<path d="M537.301 341.164H555.337V352.499H525.945C525.945 351.011 526.239 349.537 526.809 348.161C527.38 346.786 528.216 345.536 529.271 344.484C530.325 343.431 531.577 342.596 532.955 342.026C534.333 341.457 535.81 341.164 537.301 341.164Z" fill="#2F2E41"/>
<path d="M547.593 125.325L526.597 133.289L521.47 119.076C520.79 117.188 520.799 115.121 521.498 113.24C522.196 111.359 523.538 109.785 525.286 108.796C527.055 107.796 529.123 107.46 531.119 107.849C533.114 108.237 534.904 109.326 536.166 110.917L547.593 125.325Z" fill="#FF5300"/>
<path d="M477.096 314.668L459.486 310.659C458.55 310.445 457.73 309.884 457.19 309.09C456.651 308.297 456.432 307.328 456.579 306.381C463.644 261.676 470.442 235.496 487.961 202.249C488.206 201.63 490.941 189.047 492.726 180.711C492.706 179.793 493.021 178.899 493.612 178.195C494.204 177.491 495.031 177.026 495.941 176.886L528.776 171.842C529.271 171.67 529.794 171.592 530.318 171.61L530.646 171.672L530.642 171.994C530.638 172.328 530.306 172.379 530.181 172.398L529.744 172.465C530.242 172.696 530.699 173.007 531.098 173.384C545.485 190.656 552.966 247.275 562.468 309.825C562.52 310.333 562.458 310.846 562.286 311.326C562.114 311.807 561.836 312.243 561.473 312.602C561.129 312.977 560.713 313.278 560.249 313.488C559.785 313.697 559.283 313.811 558.774 313.821L537.796 314.332C536.874 314.352 535.977 314.038 535.27 313.447C534.563 312.856 534.096 312.029 533.955 311.12L519.825 229.606C519.727 228.97 519.429 228.381 518.973 227.925C518.517 227.469 517.927 227.17 517.29 227.072C516.652 226.974 515.999 227.081 515.427 227.379C514.855 227.676 514.393 228.149 514.108 228.726C502.708 251.901 492.077 271.943 481.607 311.928C481.399 312.739 480.927 313.457 480.265 313.971C479.603 314.485 478.789 314.764 477.951 314.765C477.663 314.765 477.376 314.733 477.096 314.668Z" fill="#2F2E41"/>
<path d="M494.188 181.642C493.746 181.33 493.376 180.928 493.102 180.462C492.828 179.996 492.656 179.477 492.599 178.94C489.91 153.881 491.783 134.27 498.324 118.987C499.477 116.351 501.212 114.01 503.401 112.14C505.59 110.27 508.175 108.919 510.962 108.19L527.934 107.334L528.022 107.377C531.852 109.249 534.975 112.304 536.929 116.088C538.883 119.872 539.563 124.184 538.869 128.384C533.41 142.748 528.839 157.703 532.325 169.767C532.471 170.271 532.514 170.799 532.45 171.321C532.387 171.842 532.219 172.345 531.956 172.8C531.701 173.239 531.358 173.622 530.95 173.924C530.541 174.227 530.074 174.442 529.579 174.558L497.252 182.234C496.728 182.359 496.184 182.37 495.656 182.268C495.128 182.166 494.627 181.953 494.188 181.642Z" fill="#FF5300"/>
<path d="M486.882 145.681L454.329 120.045C454.07 120.136 453.806 120.214 453.539 120.278C452.39 120.546 451.197 120.57 450.039 120.348C448.88 120.127 447.781 119.664 446.813 118.99C445.838 118.316 445.019 117.442 444.411 116.426C443.802 115.411 443.418 114.277 443.283 113.102C443.065 111.222 443.49 109.324 444.488 107.715C445.486 106.106 447 104.882 448.783 104.24C449.896 103.841 451.08 103.682 452.259 103.772C453.438 103.863 454.585 104.2 455.624 104.764C456.663 105.327 457.571 106.104 458.288 107.042C459.006 107.98 459.517 109.059 459.787 110.207C459.871 110.571 459.929 110.941 459.962 111.313L492.368 129.974L500.432 125.34L509.365 137.015L496.844 145.923C495.378 146.957 493.618 147.492 491.823 147.449C490.028 147.405 488.296 146.785 486.882 145.681H486.882Z" fill="#FFB8B8"/>
<path d="M513.337 140.65L494.764 128.042L503.493 115.702C504.652 114.063 506.354 112.886 508.298 112.379C510.242 111.872 512.304 112.067 514.118 112.93C515.953 113.803 517.415 115.302 518.239 117.157C519.064 119.012 519.197 121.1 518.614 123.044L513.337 140.65Z" fill="#FF5300"/>
<path d="M522.27 101.006C532.618 101.006 541.006 92.6331 541.006 82.3042C541.006 71.9753 532.618 63.6021 522.27 63.6021C511.923 63.6021 503.535 71.9753 503.535 82.3042C503.535 92.6331 511.923 101.006 522.27 101.006Z" fill="#FFB8B8"/>
<path d="M515.401 79.519C510.586 82.8089 504.263 86.1907 499.345 82.6872C496.115 80.3868 495.098 76.1269 496.407 72.3886C498.762 65.666 505.233 62.7064 511.42 60.4378C519.463 57.4887 528.222 55.1425 536.525 57.2545C544.829 59.3666 552.167 67.3918 550.668 75.8135C549.463 82.586 543.063 88.2213 543.972 95.0399C544.886 101.902 552.617 105.514 559.443 106.741C566.268 107.967 573.906 108.361 578.811 113.255C585.069 119.498 583.506 130.657 577.618 137.249C571.73 143.84 562.845 146.828 554.235 148.859C542.827 151.55 530.489 152.964 519.655 148.498C508.82 144.032 500.389 132.009 503.528 120.736C504.853 115.974 507.976 111.949 510.995 108.031C514.013 104.113 517.069 100.016 518.22 95.209C519.18 91.2031 518.47 86.5522 515.808 83.5474C515.324 83.0214 515.02 82.3559 514.938 81.6464C514.857 80.9368 515.003 80.2197 515.355 79.5981L515.401 79.519Z" fill="#2F2E41"/>
</g>
<defs>
<clipPath id="clip0_2_3075">
<rect width="684" height="352" fill="white" transform="translate(0 0.5)"/>
</clipPath>
</defs>
</svg>
