<svg width="20" height="21" viewBox="0 0 20 21" fill="none" xmlns="http://www.w3.org/2000/svg">
<path id="Mask" fill-rule="evenodd" clip-rule="evenodd" d="M10 4.5C10.552 4.5 11 4.053 11 3.5V1.5C11 0.947 10.552 0.5 10 0.5C9.448 0.5 9 0.947 9 1.5V3.5C9 4.053 9.448 4.5 10 4.5ZM19 9.5H17C16.448 9.5 16 9.947 16 10.5C16 11.053 16.448 11.5 17 11.5H19C19.552 11.5 20 11.053 20 10.5C20 9.947 19.552 9.5 19 9.5ZM3 9.5C3.552 9.5 4 9.947 4 10.5C4 11.053 3.552 11.5 3 11.5H1C0.448 11.5 0 11.053 0 10.5C0 9.947 0.448 9.5 1 9.5H3ZM4.2207 3.5283C3.8237 3.1453 3.1907 3.1573 2.8067 3.5533C2.4227 3.9503 2.4337 4.5843 2.8307 4.9673L4.2697 6.3573C4.4647 6.5453 4.7147 6.6373 4.9647 6.6373C5.2267 6.6373 5.4877 6.5353 5.6837 6.3323C6.0677 5.9353 6.0567 5.3013 5.6597 4.9183L4.2207 3.5283ZM15.7302 6.3577C15.5352 6.5447 15.2852 6.6377 15.0352 6.6377C14.7732 6.6377 14.5122 6.5347 14.3162 6.3317C13.9322 5.9357 13.9432 5.3017 14.3402 4.9177L15.7792 3.5287C16.1782 3.1457 16.8102 3.1577 17.1932 3.5537C17.5772 3.9497 17.5662 4.5837 17.1692 4.9677L15.7302 6.3577ZM10 16.5C9.448 16.5 9 16.947 9 17.5V19.5C9 20.053 9.448 20.5 10 20.5C10.552 20.5 11 20.053 11 19.5V17.5C11 16.947 10.552 16.5 10 16.5ZM14.316 14.6676C14.7 14.2716 15.333 14.2596 15.73 14.6426L17.169 16.0326C17.566 16.4156 17.577 17.0496 17.193 17.4466C16.997 17.6496 16.736 17.7516 16.474 17.7516C16.224 17.7516 15.974 17.6596 15.779 17.4716L14.34 16.0816C13.943 15.6986 13.932 15.0646 14.316 14.6676ZM4.27 14.6426L2.831 16.0326C2.434 16.4156 2.423 17.0496 2.807 17.4466C3.003 17.6496 3.264 17.7516 3.526 17.7516C3.776 17.7516 4.026 17.6596 4.221 17.4716L5.66 16.0816C6.057 15.6986 6.068 15.0646 5.684 14.6676C5.301 14.2716 4.668 14.2596 4.27 14.6426ZM6 10.5C6 8.294 7.794 6.5 10 6.5C12.206 6.5 14 8.294 14 10.5C14 12.706 12.206 14.5 10 14.5C7.794 14.5 6 12.706 6 10.5Z" fill="#231F20"/>
</svg>
